<svg version="1.1" id="Layer_1" xmlns="http://www.w3.org/2000/svg" xmlns:xlink="http://www.w3.org/1999/xlink" x="0px" y="0px"
	 width="100%" viewBox="0 0 1024 736" enable-background="new 0 0 1024 736" xml:space="preserve">
<path fill="#000000" opacity="1.000000" stroke="none" 
	d="
M806.531738,512.486023 
	C808.724548,510.939148 810.540222,509.429016 812.574280,508.319031 
	C822.618591,502.837738 832.776855,501.674255 842.847351,508.196655 
	C846.502808,510.564148 848.642639,509.526123 850.144043,505.777802 
	C852.098816,500.897491 852.823669,496.477692 851.915833,490.708557 
	C850.572693,482.173187 847.514832,476.192017 840.429504,471.725006 
	C838.492249,470.503693 837.336609,468.212433 836.544128,466.001251 
	C835.060547,461.861633 834.845642,457.764709 838.268433,454.382294 
	C841.540588,451.148590 845.452881,451.116760 849.383789,452.914429 
	C851.639160,453.945892 853.690369,455.424103 855.832581,456.702637 
	C858.399841,458.234802 859.686218,457.286743 859.588745,454.519135 
	C859.476074,451.317505 858.633545,448.276184 856.613647,445.673645 
	C841.236206,425.860718 821.203491,415.622650 795.964905,417.508728 
	C783.696716,418.425537 773.361816,424.137421 765.988831,434.382202 
	C757.152832,446.659943 752.178040,460.540375 749.499878,475.282166 
	C748.222046,482.316101 749.071167,483.505463 756.037476,485.818115 
	C763.292236,488.226501 768.355042,493.212006 771.759521,499.700470 
	C780.324768,516.024902 781.968567,532.945557 774.690674,550.209229 
	C769.245117,563.126404 758.780334,568.878601 744.817078,567.542297 
	C730.492676,566.171509 718.290344,560.991699 710.429199,548.444702 
	C701.173340,533.671570 701.643982,509.077606 718.541199,496.468262 
	C721.084473,494.570435 722.425171,492.080383 722.853577,488.903259 
	C724.677490,475.377289 726.609680,461.877075 731.616882,449.034485 
	C742.682373,420.653381 760.773743,400.290222 792.564819,395.682220 
	C799.176331,394.723907 805.882507,395.115417 812.385437,396.732758 
	C825.675476,400.038177 838.598633,404.471680 850.446228,411.432922 
	C865.305054,420.163422 875.155884,432.991821 880.135498,449.512299 
	C880.758972,451.580780 881.109863,453.778687 883.843323,454.504578 
	C886.808105,452.476044 885.612854,449.337921 885.520874,446.763977 
	C885.179199,437.203125 888.973938,429.915314 897.050293,424.980103 
	C905.661804,419.717865 914.022217,423.940857 915.185730,433.987732 
	C915.697266,438.405243 914.868896,442.599121 912.917480,446.600281 
	C911.345337,449.823730 910.313599,453.223480 911.802124,456.715363 
	C915.311157,464.946991 912.765564,471.614349 906.784912,477.516022 
	C905.875793,478.413147 904.572205,479.108002 904.809326,481.303680 
	C909.518250,481.441620 911.771790,478.433380 913.341003,474.737122 
	C916.357788,467.631439 921.227051,462.566803 928.508484,459.746094 
	C933.031006,457.994141 939.927917,459.217316 942.822388,462.662201 
	C946.123840,466.591400 946.352417,473.230042 943.145081,477.563965 
	C941.971436,479.149902 940.504395,480.585052 938.951416,481.810364 
	C935.493286,484.538788 933.579651,487.847809 933.145081,492.367096 
	C932.433960,499.762909 928.350891,504.444672 920.942017,506.352295 
	C917.246399,507.303802 913.107239,507.740601 910.201172,511.152954 
	C912.150818,513.924255 914.789551,513.447571 917.149841,513.603455 
	C919.666077,513.769714 922.746094,513.497253 923.058594,516.776184 
	C923.403320,520.394226 924.857117,525.003845 920.543213,527.126648 
	C917.070984,528.835327 917.084412,531.145569 917.544617,534.049683 
	C918.531860,540.280029 919.471741,546.520203 920.604492,552.724670 
	C922.139465,561.133179 920.634338,568.911865 916.309448,576.239624 
	C913.117981,581.647339 913.720337,582.635925 920.158936,582.672485 
	C927.657288,582.714966 935.156189,582.653809 942.654541,582.695068 
	C944.240173,582.703796 946.006226,582.147583 947.474792,583.895691 
	C946.258850,586.149292 944.048035,585.340637 942.316040,585.345642 
	C923.832581,585.398743 905.345764,585.558716 886.866272,585.272400 
	C873.378845,585.063416 859.905701,586.750916 846.423035,585.419189 
	C844.352539,585.214661 842.508911,585.952759 840.606323,586.587769 
	C834.754456,588.541138 828.889099,589.030396 823.031860,586.529785 
	C818.226868,584.478455 813.146179,585.235291 808.208008,585.439148 
	C776.730835,586.738525 745.245789,585.887207 713.765137,585.951111 
	C700.775879,585.977539 687.770447,586.433289 674.805298,585.180725 
	C673.044922,585.010681 671.143799,585.507080 669.568359,584.291870 
	C669.562927,583.778503 669.557556,583.265076 669.552185,582.751709 
	C713.308228,582.751709 757.064331,582.751709 800.676025,582.751709 
	C800.902222,580.039917 799.897217,579.587219 799.141724,578.984680 
	C787.097412,569.378662 784.706177,556.776367 788.132874,542.574280 
	C790.986206,530.748291 797.217041,520.844421 806.531738,512.486023 
M869.252014,554.411621 
	C868.790405,556.345520 868.291016,558.271362 867.875000,560.215027 
	C867.007751,564.266663 868.238831,565.377808 872.280701,564.399719 
	C877.064331,563.242004 879.620239,559.959229 880.536316,555.427856 
	C882.205994,547.169373 884.115479,538.899536 878.101746,531.252930 
	C876.877380,529.696106 876.633545,527.660034 873.996033,527.983765 
	C871.552979,528.283691 869.861023,529.472107 869.470093,531.872742 
	C869.022705,534.619934 868.318176,537.325195 868.924622,540.234070 
	C869.838623,544.618103 870.230164,549.090271 869.252014,554.411621 
M895.144531,505.266998 
	C895.631836,500.456177 896.119141,495.645386 896.653931,490.365875 
	C891.618103,492.832642 889.753113,503.542511 892.643860,508.917603 
	C894.302063,508.642029 894.502991,507.238647 895.144531,505.266998 
M881.917480,486.588318 
	C881.696655,491.819946 886.256531,494.413055 887.993774,498.563995 
	C889.397827,491.791199 887.182190,487.341217 881.917480,486.588318 
M860.501465,582.683899 
	C862.216919,582.481506 863.753601,582.089355 862.016846,580.024353 
	C860.984009,578.796265 859.990234,577.025085 858.086365,577.441223 
	C855.662048,577.971008 853.680725,579.325867 852.459656,582.711182 
	C855.263489,582.711182 857.514160,582.711182 860.501465,582.683899 
z"/>
<path fill="#000000" opacity="1.000000" stroke="none" 
	d="
M132.414856,476.460693 
	C120.665588,444.546295 109.012024,413.011322 97.498764,381.425232 
	C94.273605,372.577087 97.543587,365.008057 106.397102,361.181305 
	C110.196465,359.539093 112.409485,357.680115 112.359283,353.257935 
	C112.315010,349.357391 113.922050,345.940460 118.118446,344.877441 
	C122.231049,343.835693 125.111656,346.089142 127.505798,349.159180 
	C128.564850,350.517273 129.114624,352.724640 131.629761,351.856506 
	C134.207642,350.966675 133.717255,348.768768 133.713593,346.814758 
	C133.706299,342.930023 134.568878,339.383301 138.423523,337.630280 
	C142.461258,335.794006 145.399292,338.204407 148.192825,340.736847 
	C149.626236,342.036285 150.822556,344.196320 153.165665,343.301605 
	C155.549179,342.391510 154.848862,339.959839 155.065109,338.054565 
	C155.511749,334.119415 156.217651,330.288452 160.716949,328.969452 
	C164.981354,327.719391 167.630981,330.309998 170.015167,333.282135 
	C171.054535,334.577820 171.937149,336.166199 173.996643,335.647369 
	C176.156219,335.103333 175.895584,333.195221 176.123535,331.594666 
	C176.287964,330.440094 176.352570,329.268768 176.565033,328.124084 
	C177.879089,321.043823 184.036560,318.847778 189.523621,323.522705 
	C190.531036,324.381012 191.350220,325.457703 192.279221,326.411255 
	C193.272324,327.430603 194.443008,327.972168 195.886139,327.527649 
	C197.452866,327.045013 197.734344,325.775238 197.750015,324.364716 
	C197.761124,323.365845 197.656906,322.351532 197.794540,321.370819 
	C198.247421,318.143982 199.051941,315.033752 202.575272,313.799500 
	C206.288239,312.498810 209.392380,313.703735 212.134476,316.362549 
	C213.475113,317.662445 214.223892,320.335083 216.719559,319.466064 
	C219.282761,318.573486 218.829025,315.974274 218.916153,313.860382 
	C219.057343,310.434814 220.227142,307.573303 223.564606,306.241425 
	C227.215256,304.784576 230.927017,305.557281 233.006546,308.687653 
	C236.130249,313.389862 239.586105,312.408539 243.722931,310.775970 
	C254.594727,306.485687 259.579102,308.961060 263.646912,319.943390 
	C275.387085,351.639893 287.233734,383.296997 299.078064,414.954803 
	C299.687347,416.583282 299.891907,418.586182 301.930847,419.380066 
	C303.966888,418.843414 304.200500,417.059204 304.558350,415.501862 
	C307.724030,401.724396 310.892517,387.947021 313.939911,374.143097 
	C315.492981,367.108124 318.164398,364.918427 324.476074,365.968750 
	C333.049622,367.395477 335.668213,370.247925 334.139771,377.786346 
	C331.298035,391.802521 328.107147,405.749725 324.924652,419.694397 
	C322.260986,431.365570 319.414642,442.995209 316.616974,454.635468 
	C316.164520,456.518097 316.553711,458.202728 317.221985,459.970428 
	C323.816010,477.413635 330.352142,494.878784 336.909729,512.335754 
	C340.671387,522.349609 336.951141,530.384399 326.843475,534.054016 
	C285.204987,549.171082 243.564850,564.283569 201.935272,579.425049 
	C200.578720,579.918396 198.979080,580.111572 197.563202,582.629272 
	C236.542160,582.629272 274.923553,582.629272 313.304932,582.629272 
	C313.334747,583.213562 313.364532,583.797791 313.394318,584.382080 
	C308.253906,585.839233 302.775513,585.636047 297.566956,585.679749 
	C260.748230,585.989075 223.925186,586.689209 187.105545,585.507019 
	C181.627777,585.331177 176.127289,586.014526 170.639221,585.981812 
	C145.983917,585.835022 121.329277,585.577332 96.674568,585.341797 
	C95.273659,585.328430 93.739349,585.622437 92.377235,584.172424 
	C94.012039,582.128723 96.131058,582.754700 97.947906,582.750671 
	C119.945328,582.701477 141.942902,582.733826 163.940399,582.704834 
	C171.104660,582.695435 171.490387,582.015503 168.960541,575.187073 
	C156.814713,542.403320 144.693573,509.610413 132.414856,476.460693 
M222.874023,518.319092 
	C228.036301,516.435242 233.198563,514.551392 238.360794,512.667419 
	C254.476578,506.785736 270.564697,500.826324 286.728607,495.080139 
	C290.503510,493.738190 292.453552,491.974182 290.919525,487.783569 
	C290.411102,486.394684 290.305450,484.858185 290.017303,483.388855 
	C289.467010,480.582458 287.976532,479.906647 285.316010,481.012115 
	C280.089050,483.183990 274.826477,485.280426 269.518250,487.244873 
	C240.153275,498.112091 210.776428,508.947418 181.376099,519.718506 
	C179.764709,520.308838 177.876999,521.978394 175.586243,519.346741 
	C179.745667,516.642944 184.193253,515.388733 188.446579,513.825073 
	C220.805603,501.928833 253.202316,490.135132 285.565216,478.249359 
	C291.281769,476.149872 294.812592,467.394379 292.413269,461.336761 
	C291.672241,461.505768 290.856506,461.584625 290.124115,461.874298 
	C252.020477,476.944977 213.407532,490.651917 174.976776,504.845825 
	C173.476242,505.400024 171.623245,506.894196 170.189331,504.396973 
	C171.004013,502.627625 172.756500,502.328796 174.266647,501.786560 
	C213.454712,487.715424 252.130280,472.237549 291.629425,459.025604 
	C293.997681,458.233459 295.149933,456.971161 295.671204,454.582611 
	C297.125153,447.920471 298.729431,441.290009 300.356842,434.667328 
	C301.249725,431.033722 301.077576,427.727112 299.637695,424.076294 
	C290.294800,400.387512 281.073364,376.650146 272.522339,352.656281 
	C268.390747,341.063293 264.167969,329.475433 259.293854,318.184265 
	C256.123230,310.839355 244.365540,310.124695 239.446991,316.409882 
	C238.046967,318.198975 238.045761,320.107880 238.968597,322.036011 
	C239.613113,323.382660 240.552704,324.588776 241.189362,325.938354 
	C242.604065,328.937225 241.612656,331.550293 239.354385,333.588684 
	C237.290115,335.451965 234.750076,335.562836 232.402145,334.068268 
	C229.827789,332.429535 228.310623,330.134796 229.177414,326.894684 
	C229.434158,325.934937 229.961655,325.048492 230.227890,324.090332 
	C231.153091,320.760590 229.754089,319.343506 226.403290,320.158630 
	C217.278564,322.378448 216.067291,324.644501 219.403015,333.258575 
	C219.583313,333.724152 219.828110,334.171234 219.954071,334.650299 
	C220.652802,337.307343 220.154053,339.723999 217.898087,341.365662 
	C215.530075,343.088837 212.774216,343.182861 210.400436,341.510254 
	C207.111237,339.192596 206.022491,336.167694 208.537079,332.483490 
	C209.273483,331.404541 210.165024,330.158234 209.047226,328.859436 
	C208.195984,327.870331 206.921448,328.100342 205.756348,328.210663 
	C196.686966,329.069427 194.321335,332.978363 198.190277,340.803497 
	C199.707825,343.872833 199.546600,346.635040 196.814362,348.884918 
	C194.297211,350.957703 191.573975,350.782074 188.943771,349.076263 
	C186.068604,347.211578 185.967804,344.469391 186.864029,341.544983 
	C187.153671,340.599823 187.820526,339.768616 188.098022,338.821716 
	C188.791962,336.453735 187.786331,335.349091 185.353180,335.425934 
	C176.174744,335.715790 172.926285,340.720947 176.589050,348.944855 
	C178.297882,352.781647 176.775543,356.970490 173.271851,358.072357 
	C169.831009,359.154449 165.907806,357.040619 164.929459,353.589844 
	C164.336548,351.498444 165.055740,349.662659 165.974792,347.845703 
	C166.944458,345.928680 166.963943,343.740479 164.539963,343.587097 
	C160.655365,343.341278 156.699417,344.686523 154.045563,347.389282 
	C151.705292,349.772705 153.059738,352.951538 154.846649,355.623352 
	C156.193237,357.636810 156.765747,359.862976 155.670181,362.250061 
	C154.145370,365.572540 150.111038,367.047821 146.823029,365.463898 
	C143.146683,363.692841 142.093567,360.050201 144.237244,356.273376 
	C145.270203,354.453461 147.463928,351.892548 143.752075,351.467743 
	C139.821808,351.018005 135.651733,352.608734 132.728836,355.349396 
	C130.341522,357.587860 132.074371,360.697052 133.273407,363.214600 
	C134.978683,366.795074 135.918549,370.263306 132.199112,373.066833 
	C129.654236,374.984985 126.767616,374.847412 124.350586,372.786835 
	C120.883423,369.831116 121.298157,366.451691 123.820244,363.053955 
	C124.680214,361.895416 125.052765,360.582764 124.169968,359.349731 
	C123.198112,357.992340 121.823708,358.457458 120.538017,358.934601 
	C116.011940,360.614441 111.422386,362.143951 106.978874,364.019409 
	C103.010422,365.694397 101.931648,369.183777 102.569588,373.121979 
	C102.965126,375.563782 103.822853,377.957275 104.689995,380.291901 
	C112.166588,400.421570 119.737625,420.516205 127.194542,440.653107 
	C143.034271,483.427368 158.803162,526.227844 174.647446,569.000427 
	C177.864182,577.684265 181.253571,579.358032 189.981689,576.229980 
	C205.649048,570.614990 221.213760,564.714233 236.849823,559.010986 
	C267.185852,547.946106 297.556335,536.975464 327.879242,525.874756 
	C335.669037,523.023010 336.697815,520.944214 333.919037,513.070862 
	C328.877319,498.785492 323.578644,484.590454 318.316803,470.383759 
	C317.781403,468.938202 317.413849,467.054932 313.961823,466.977570 
	C312.031799,481.507812 305.345123,494.034515 295.004456,504.782532 
	C292.233734,502.626862 293.116760,499.067657 290.924561,497.098206 
	C288.595337,496.640503 286.726379,497.955688 284.737457,498.693695 
	C252.259918,510.745514 219.797226,522.837524 187.305542,534.851013 
	C185.685410,535.450073 183.743439,537.033936 181.258438,533.757507 
	C195.210556,528.589600 208.681137,523.600037 222.874023,518.319092 
M293.822937,488.935059 
	C294.404694,491.079254 294.145538,493.810760 297.036682,494.497101 
	C300.006683,495.202118 300.938293,492.533722 302.225464,490.795563 
	C303.294220,489.352356 305.500427,487.778625 303.617157,485.702179 
	C301.801239,483.700012 299.393860,482.579803 296.507233,483.340942 
	C293.945892,484.016327 293.135681,485.714081 293.822937,488.935059 
z"/>
<path fill="#000000" opacity="1.000000" stroke="none" 
	d="
M240.020020,269.858704 
	C235.393585,253.125931 230.870300,236.783066 226.432449,220.417038 
	C224.916138,214.825119 225.951935,212.400101 231.055695,209.894684 
	C233.480103,208.704559 234.887543,207.043869 235.878021,204.555634 
	C237.816498,199.686020 240.416550,198.992508 244.008453,202.495178 
	C246.386093,204.813766 248.906052,205.150421 251.777084,204.363998 
	C263.797760,201.071243 275.802673,197.720886 287.807892,194.372055 
	C291.152802,193.438980 293.665100,191.827179 294.903748,188.143127 
	C296.094818,184.600510 298.793884,183.035492 302.255219,185.838242 
	C304.341614,187.527679 306.599945,187.975250 309.193359,188.028778 
	C316.510986,188.179855 318.799042,190.108215 320.682983,197.283524 
	C323.216064,206.930969 325.767670,216.573669 328.268250,226.229553 
	C329.322174,230.299347 331.347168,233.199509 335.445068,235.106369 
	C343.764374,238.977509 345.954651,248.635956 340.587219,256.153320 
	C339.036865,258.324677 337.388794,260.398834 336.542175,262.980103 
	C335.573303,265.934113 333.430450,267.578613 330.490906,268.356140 
	C305.737793,274.903931 281.010834,281.552612 256.224243,287.970947 
	C248.072632,290.081757 245.430191,288.334351 243.011505,280.314880 
	C242.003708,276.973389 241.104980,273.598999 240.020020,269.858704 
M266.724426,231.605972 
	C270.572845,232.280792 273.659424,231.739578 274.185120,226.880646 
	C273.707825,226.700775 273.259216,226.370651 272.828888,226.392975 
	C260.635742,227.025406 249.015228,230.247482 237.662918,234.480759 
	C234.855423,235.527679 234.746796,238.287460 235.282349,240.898682 
	C236.254623,245.639084 237.999649,250.132996 239.913132,254.552216 
	C240.596741,256.131012 240.931747,258.343201 243.409302,258.150970 
	C245.568375,257.983398 246.167068,256.384094 246.874161,254.513412 
	C248.305511,250.726639 252.304077,251.293930 255.319565,250.313904 
	C256.977539,249.775055 258.349487,250.861450 258.754181,252.445053 
	C259.736969,256.290924 262.290710,260.571472 256.177673,263.078613 
	C258.377930,263.158264 260.176514,263.099945 261.959778,262.902710 
	C263.665497,262.714050 265.297485,261.480957 264.483917,259.999237 
	C261.689270,254.909348 262.667847,248.927353 260.250610,243.819672 
	C256.574677,236.052292 257.637390,233.775528 266.724426,231.605972 
M316.724457,263.969025 
	C320.932037,266.327850 325.102814,267.024780 329.506866,264.242920 
	C328.253387,261.735352 326.284943,261.711945 324.575500,261.306915 
	C320.383453,260.313629 317.641479,257.637543 316.059296,253.809662 
	C315.439087,252.309250 315.452057,250.493713 314.235718,249.275330 
	C312.509033,247.545761 310.359497,245.047729 307.995209,246.992401 
	C305.628448,248.939102 307.161316,251.552841 309.149170,253.374664 
	C312.247406,256.214172 314.514221,259.608337 316.724457,263.969025 
M315.108673,214.944382 
	C311.710541,215.534973 307.914459,215.131973 305.225464,218.712891 
	C307.586884,220.534821 309.636353,219.384628 311.633575,219.047760 
	C314.596649,218.547989 317.945282,217.305511 317.593140,222.544403 
	C317.521667,223.608063 318.216156,224.408371 319.342682,224.646576 
	C320.460876,224.882996 321.381561,224.466660 321.789581,223.446564 
	C322.915833,220.630768 320.815216,218.395294 320.144836,215.940643 
	C319.588776,213.904526 317.545410,214.368561 315.108673,214.944382 
M246.105255,275.203552 
	C246.296768,278.873901 246.574493,282.814850 250.580353,284.224976 
	C253.884628,285.388153 254.834320,281.543640 257.483582,280.121521 
	C253.516312,277.807281 249.794937,276.189423 246.667358,273.558716 
	C245.847488,272.869080 245.923401,274.106689 246.105255,275.203552 
z"/>
<path fill="#000000" opacity="1.000000" stroke="none" 
	d="
M872.034119,369.038208 
	C863.329407,366.233765 855.436279,361.911713 846.243896,362.398926 
	C844.721191,362.479614 842.830261,361.703613 841.624390,360.702972 
	C832.462463,353.100494 820.731750,351.570953 810.185791,347.286774 
	C803.262390,344.474243 803.058350,344.203491 805.596863,337.274963 
	C809.943115,325.412048 813.974487,313.432709 818.048767,301.471893 
	C818.993286,298.699097 820.327271,296.694794 823.582336,296.729340 
	C824.057251,296.734375 824.694031,296.604004 824.988159,296.287506 
	C829.884644,291.019714 834.781006,294.096222 839.823425,296.075897 
	C847.496033,299.088196 855.985901,300.028992 862.512634,305.922363 
	C864.666199,307.866943 868.071533,305.740662 870.787415,306.697021 
	C878.786499,309.513824 886.774841,312.360657 894.763428,315.207031 
	C896.484314,315.820221 897.547058,316.974335 897.609009,318.888062 
	C897.653564,320.265320 897.879822,321.786499 899.066528,322.462555 
	C903.753784,325.132660 902.148865,328.693359 900.813599,332.395813 
	C896.636658,343.977448 892.656616,355.631104 888.385071,367.177246 
	C885.886597,373.930511 885.233948,374.062256 878.470032,371.473389 
	C876.449158,370.699829 874.424133,369.937103 872.034119,369.038208 
M884.038696,314.552948 
	C880.436707,313.283142 876.880615,311.857727 873.222656,310.777313 
	C866.504517,308.793030 863.226624,310.360229 860.874451,316.992065 
	C857.379944,326.844360 854.195129,336.806091 850.814514,346.699402 
	C850.008911,349.056976 850.528625,350.383392 853.013550,351.217896 
	C859.305359,353.330872 865.506958,355.711548 871.787048,357.860901 
	C878.654480,360.211304 880.806091,359.129730 882.793579,352.276459 
	C885.520203,342.874146 889.773987,334.013275 892.125244,324.443726 
	C893.645020,318.258392 894.208069,318.258636 888.020874,316.078278 
	C886.924622,315.691925 885.839111,315.275024 884.038696,314.552948 
M850.055298,338.538818 
	C852.721375,330.464813 855.387451,322.390778 858.009705,314.449646 
	C847.752136,313.877899 840.229187,308.776886 832.226685,304.797668 
	C840.487183,305.914520 848.436340,307.946960 856.516113,311.175262 
	C856.762695,307.093262 853.987976,306.078003 851.799377,304.984222 
	C847.205139,302.688232 842.584778,300.437378 837.674683,298.795715 
	C832.002747,296.899292 830.050903,297.695465 828.550964,303.406891 
	C825.895020,313.520325 821.342285,322.998871 818.903320,333.222870 
	C817.908081,337.394989 818.863159,338.957336 822.443481,340.299347 
	C827.732605,342.281799 833.380554,343.126068 838.502991,345.630066 
	C845.007080,348.809448 845.256958,348.664093 848.483765,341.947723 
	C848.915649,341.048859 849.342407,340.147491 850.055298,338.538818 
z"/>
<path fill="#000000" opacity="1.000000" stroke="none" 
	d="
M354.175659,138.122681 
	C355.983459,136.886307 357.767212,136.115128 358.991089,134.816330 
	C367.794373,125.473969 378.068604,123.662849 390.090240,127.632484 
	C395.404022,129.387131 401.194794,129.695221 406.767242,130.669861 
	C408.529144,130.978043 410.837372,130.828384 411.233063,133.046326 
	C411.624420,135.240005 409.289001,135.875473 407.902893,136.956757 
	C406.986542,137.671600 405.971893,138.261353 404.995026,138.897583 
	C401.383087,141.249954 400.135071,144.148972 401.258911,148.662918 
	C404.037720,159.824356 402.203552,163.060745 391.337555,167.456009 
	C383.679779,170.553543 375.857971,172.359665 367.455139,170.540665 
	C362.650330,169.500534 359.670105,167.384720 359.033844,162.208557 
	C358.689636,159.408539 358.659790,156.158096 355.315399,154.260162 
	C352.482056,157.905655 353.113007,161.463699 354.560913,165.131790 
	C355.840607,168.373734 357.083557,171.633926 358.205872,174.932632 
	C358.741486,176.506851 359.210205,178.386368 357.434418,179.464554 
	C355.179718,180.833481 352.585022,180.815353 350.215851,179.858643 
	C348.347107,179.104034 348.518555,177.183807 348.718842,175.492218 
	C349.321075,170.404816 351.010437,165.506607 350.747589,160.243591 
	C350.497101,155.227859 349.886871,150.877563 343.867523,149.801331 
	C343.335266,149.706177 342.918762,148.963806 342.057129,148.154419 
	C345.368591,143.953293 350.116638,141.696213 354.175659,138.122681 
z"/>
<path fill="#000000" opacity="1.000000" stroke="none" 
	d="
M730.599609,196.670807 
	C729.223328,199.363144 727.980225,201.719559 726.846802,204.127594 
	C724.334778,209.464401 720.751709,211.708130 715.376587,211.220901 
	C711.426758,210.862869 706.993347,206.501266 705.923340,201.910461 
	C705.517456,200.169006 706.071289,198.605698 706.933044,197.145309 
	C710.755493,190.667816 711.390869,183.918411 710.041626,176.479538 
	C707.774597,163.980637 713.900879,153.744186 724.540894,150.846100 
	C733.710571,148.348526 744.427490,153.061783 748.689453,161.466583 
	C753.134399,170.231995 750.595886,180.951614 742.812927,187.624527 
	C739.021362,190.875336 733.763672,192.043655 730.599609,196.670807 
M720.419617,182.163757 
	C721.325439,180.105316 721.779541,178.186783 720.109131,176.133957 
	C718.662292,174.355865 718.226746,172.210663 719.834534,170.174438 
	C720.593750,169.212845 721.623657,168.604782 722.895447,169.034286 
	C725.166016,169.801056 725.562500,171.861832 725.885925,173.825943 
	C726.571228,177.987747 728.314392,178.706940 731.412720,175.727188 
	C732.697327,174.491776 734.166260,173.776794 735.913452,174.720932 
	C737.174988,175.402588 737.884155,176.574905 737.818604,177.997086 
	C737.719055,180.155304 736.148254,181.061493 734.344055,181.751923 
	C729.328857,183.671082 725.407959,189.896301 726.200012,196.072769 
	C731.143250,189.640030 739.854431,188.320694 744.532532,181.540268 
	C748.905579,175.202026 749.484863,168.461838 745.641663,161.820587 
	C741.639526,154.904770 735.134888,152.365509 727.366577,153.267288 
	C719.878784,154.136505 715.624695,158.911407 713.317993,165.736282 
	C710.464233,174.179810 714.911621,182.171494 714.021240,190.940338 
	C718.867188,189.458084 718.675781,185.583099 720.419617,182.163757 
M722.488953,185.050308 
	C721.704285,187.535126 720.080261,189.898422 721.361267,194.183578 
	C723.472717,188.767365 727.079285,185.374390 726.548279,179.971237 
	C723.378601,180.689499 723.707886,182.976364 722.488953,185.050308 
z"/>
<path fill="#000000" opacity="1.000000" stroke="none" 
	d="
M131.636505,269.752625 
	C136.755768,261.853485 141.692993,254.271439 146.377274,247.077820 
	C148.913452,247.130661 149.379745,248.532715 149.975632,249.650467 
	C153.878662,256.971497 157.717194,264.326874 161.595612,271.661072 
	C162.851135,274.035278 163.118225,276.022034 159.550247,275.851898 
	C150.941879,275.441498 142.341370,274.868988 133.736145,274.389343 
	C130.521042,274.210114 129.345139,273.025909 131.636505,269.752625 
M154.047989,264.569031 
	C152.671555,262.115997 151.334839,259.639587 149.908768,257.215729 
	C148.080948,254.109116 145.910217,253.868759 143.782440,256.841980 
	C141.372604,260.209381 139.003036,263.623016 136.889420,267.179077 
	C135.409454,269.669006 136.469025,271.409607 139.337158,271.619843 
	C142.972153,271.886261 146.624557,271.966187 150.270920,272.014648 
	C156.124878,272.092438 156.950302,270.718811 154.047989,264.569031 
z"/>
<path fill="#000000" opacity="1.000000" stroke="none" 
	d="
M818.191650,230.088226 
	C819.755371,229.209305 820.780945,227.835754 822.682312,228.587921 
	C824.908813,233.823364 823.953125,239.566238 824.649292,245.087891 
	C824.937439,247.373627 823.408142,248.084244 821.449097,247.221298 
	C817.212097,245.354904 813.013916,243.393509 808.857300,241.353882 
	C806.353760,240.125427 806.319458,238.488159 808.558838,236.877121 
	C811.648193,234.654541 814.778198,232.488525 818.191650,230.088226 
M813.791382,240.277084 
	C815.992126,240.892639 818.262817,244.192169 820.316833,241.547302 
	C821.996094,239.384979 821.356995,236.196564 819.369019,233.827652 
	C816.986389,233.919052 815.572998,235.472992 814.002991,236.619354 
	C812.932129,237.401184 811.013428,238.300842 813.791382,240.277084 
z"/>
<path fill="#000000" opacity="1.000000" stroke="none" 
	d="
M884.038208,283.655609 
	C883.808838,279.695709 885.207458,277.036926 888.777954,276.069733 
	C891.688599,275.281250 893.982788,276.655365 895.740723,278.911041 
	C897.621704,281.324402 897.452698,283.843048 895.857849,286.338196 
	C893.351257,290.259766 885.864929,290.383179 884.038208,283.655609 
z"/>
<path fill="#000000" opacity="1.000000" stroke="none" 
	d="
M910.067627,377.008179 
	C910.334900,375.456360 910.475952,374.289734 910.818420,373.185577 
	C911.399414,371.312317 910.218994,367.424103 914.158752,368.926544 
	C916.619873,369.865051 920.765808,371.139679 918.063049,375.682343 
	C917.740845,376.223969 917.439209,376.991180 917.568115,377.552856 
	C918.326538,380.858368 916.880615,383.077484 913.770264,383.222717 
	C909.937317,383.401672 910.402405,379.950165 910.067627,377.008179 
z"/>
<path fill="#000000" opacity="1.000000" stroke="none" 
	d="
M605.039368,164.452026 
	C604.897827,159.090500 606.988586,156.107986 610.873596,155.968048 
	C614.777100,155.827454 617.230164,158.151550 617.953186,161.701141 
	C618.686707,165.302567 616.548279,167.813171 613.214478,168.881622 
	C609.405334,170.102432 606.849854,168.193588 605.039368,164.452026 
M610.884644,158.896347 
	C608.416748,159.786118 606.779541,161.258011 607.898804,164.092041 
	C608.551636,165.745117 609.975525,166.713226 611.844971,166.429321 
	C613.460388,166.184036 614.523987,165.128525 614.789856,163.491272 
	C615.203552,160.943237 614.119446,159.356308 610.884644,158.896347 
z"/>
<path fill="#000000" opacity="1.000000" stroke="none" 
	d="
M173.671448,208.940796 
	C175.528076,206.381302 177.610428,205.852509 179.862335,207.591705 
	C181.670319,208.987991 181.970505,211.070145 180.905045,212.980362 
	C179.942245,214.706482 178.189880,215.463364 176.192795,214.700897 
	C173.686157,213.743881 172.353729,212.093643 173.671448,208.940796 
z"/>
<path fill="#000000" opacity="1.000000" stroke="none" 
	d="
M699.531982,156.079742 
	C703.721924,154.671921 706.087158,157.386139 708.502319,160.061447 
	C704.870544,160.436707 701.880066,159.167603 699.531982,156.079742 
z"/>
<path fill="#000000" opacity="1.000000" stroke="none" 
	d="
M722.676208,147.096832 
	C718.066650,145.550934 719.468079,141.607391 719.164246,138.268097 
	C722.161255,140.348251 723.110657,143.332108 722.676208,147.096832 
z"/>
<path fill="#000000" opacity="1.000000" stroke="none" 
	d="
M755.646973,159.453522 
	C758.059753,158.784332 759.878357,156.844299 762.729797,158.179001 
	C760.255920,161.416794 756.858276,161.619400 753.636353,162.526520 
	C753.060242,160.317352 754.349304,160.078064 755.646973,159.453522 
z"/>
<path fill="#000000" opacity="1.000000" stroke="none" 
	d="
M753.032837,183.138809 
	C751.170288,180.560699 752.657288,180.110031 754.421509,180.762543 
	C756.801697,181.642914 759.384888,182.484589 761.168335,185.247314 
	C757.722961,186.698608 755.716980,184.202118 753.032837,183.138809 
z"/>
<path fill="#000000" opacity="1.000000" stroke="none" 
	d="
M742.875488,146.652832 
	C742.155762,147.772537 741.737488,148.766617 740.137756,148.355927 
	C739.998230,144.970825 741.410034,142.337448 744.234070,139.683685 
	C745.646423,142.616821 743.530579,144.331528 742.875488,146.652832 
z"/>
<path fill="#000000" opacity="1.000000" stroke="none" 
	d="
M185.811005,418.692627 
	C173.185730,423.555939 160.867020,428.143890 148.594223,432.851562 
	C145.168198,434.165771 143.059036,433.669159 141.690216,429.893188 
	C138.174957,420.196136 134.449753,410.572662 130.649582,400.982727 
	C129.176239,397.264740 129.939590,395.145691 133.872269,393.766785 
	C145.803528,389.583313 157.666138,385.201904 169.521484,380.805817 
	C172.198914,379.813019 173.914917,380.179047 174.979248,383.054352 
	C178.733490,393.196259 182.598709,403.297028 186.391220,413.424866 
	C187.021713,415.108643 187.959274,416.874054 185.811005,418.692627 
z"/>
<path fill="#000000" opacity="1.000000" stroke="none" 
	d="
M252.402771,377.502075 
	C233.308670,384.546509 214.580383,391.465271 195.840530,398.352570 
	C193.925980,399.056213 191.720901,400.702423 190.439911,397.479279 
	C189.189301,394.332672 191.844406,393.712616 193.720795,393.006378 
	C214.272263,385.270966 234.853592,377.614685 255.444077,369.983490 
	C257.350952,369.276764 259.465088,368.737457 260.454437,371.413666 
	C261.505890,374.257904 259.218781,374.761139 257.404816,375.525909 
	C255.871979,376.172211 254.312790,376.756012 252.402771,377.502075 
z"/>
<path fill="#000000" opacity="1.000000" stroke="none" 
	d="
M218.219849,370.166412 
	C229.154602,366.057159 239.732117,362.099030 250.323929,358.179504 
	C252.294525,357.450287 254.566895,356.095581 255.716736,359.229004 
	C256.794983,362.167358 254.428253,363.102814 252.449341,363.840363 
	C239.376999,368.712769 226.261871,373.470337 213.168945,378.287750 
	C205.842667,380.983368 198.541290,383.746765 191.208862,386.425293 
	C189.197403,387.160095 186.827881,388.263000 185.799011,385.214905 
	C184.778000,382.190125 187.400024,381.604431 189.358871,380.870605 
	C198.846390,377.316315 208.361923,373.836823 218.219849,370.166412 
z"/>
<path fill="#000000" opacity="1.000000" stroke="none" 
	d="
M250.501434,442.563934 
	C219.982803,453.717407 190.174377,465.709045 158.529037,476.321320 
	C161.132751,471.960571 277.205383,428.229492 282.367828,428.653687 
	C282.487457,431.424774 280.147766,431.583038 278.466614,432.214264 
	C269.282837,435.662445 260.068359,439.028900 250.501434,442.563934 
z"/>
<path fill="#000000" opacity="1.000000" stroke="none" 
	d="
M247.872208,405.758789 
	C255.870544,403.436493 262.933533,399.355927 271.531830,397.956543 
	C269.068268,402.290985 152.526596,445.560577 147.514832,443.889648 
	C180.447281,430.198425 214.262680,418.782837 247.872208,405.758789 
z"/>
<path fill="#000000" opacity="1.000000" stroke="none" 
	d="
M254.095764,424.180847 
	C220.495728,436.358429 187.552200,449.223419 153.987183,460.326721 
	C156.048691,456.496124 271.295074,413.362732 276.804352,414.181335 
	C270.095032,419.029205 261.963623,420.874786 254.095764,424.180847 
z"/>
<path fill="#000000" opacity="1.000000" stroke="none" 
	d="
M269.516998,452.595520 
	C234.847458,465.485352 200.798462,478.935028 166.092346,490.593475 
	C165.774689,490.700195 165.260498,490.221924 164.819672,490.007843 
	C167.367630,486.554321 282.989044,443.418823 289.297882,444.102814 
	C282.896515,448.728027 276.055145,449.875702 269.516998,452.595520 
z"/>
<path fill="#000000" opacity="1.000000" stroke="none" 
	d="
M271.054138,521.156189 
	C243.165619,531.405273 215.644608,541.524048 186.845642,552.112610 
	C189.696121,546.898376 305.386932,503.962463 312.239929,505.205292 
	C298.147491,511.759064 284.532837,515.780640 271.054138,521.156189 
z"/>
<path fill="#000000" opacity="1.000000" stroke="none" 
	d="
M857.718384,338.088440 
	C858.196045,336.246918 859.446289,336.319641 860.555664,336.671387 
	C866.733032,338.630035 872.897583,340.632660 879.028687,342.730530 
	C880.045166,343.078369 881.224487,343.668762 881.160339,346.359894 
	C873.031128,344.064026 864.979736,342.681030 857.718384,338.088440 
z"/>
<path fill="#000000" opacity="1.000000" stroke="none" 
	d="
M873.402649,336.644714 
	C870.080872,335.376862 867.145508,334.236786 863.920959,334.060791 
	C862.040466,333.958191 860.408264,333.303040 859.998230,331.092804 
	C864.616577,329.562531 879.033752,333.960388 883.670288,338.440613 
	C879.757019,340.193451 876.886841,337.538330 873.402649,336.644714 
z"/>
<path fill="#000000" opacity="1.000000" stroke="none" 
	d="
M880.768677,320.058228 
	C883.726379,321.352753 887.015991,321.258484 888.391724,324.923431 
	C880.032959,324.405670 872.784912,320.368561 865.247742,317.073090 
	C870.820801,315.423798 875.290344,319.366425 880.768677,320.058228 
z"/>
<path fill="#000000" opacity="1.000000" stroke="none" 
	d="
M864.473877,325.884460 
	C863.271606,325.206268 862.375061,324.703613 863.179382,322.432373 
	C870.811768,325.002289 879.096313,325.681274 885.812805,331.155762 
	C878.274963,331.588440 871.892700,327.367401 864.473877,325.884460 
z"/>
<path fill="#000000" opacity="1.000000" stroke="none" 
	d="
M864.962830,345.882599 
	C869.736267,347.913483 874.708618,348.579254 878.404358,352.117462 
	C870.210388,351.474365 862.874573,348.213104 854.148682,345.321899 
	C858.722534,342.849762 861.591736,345.153503 864.962830,345.882599 
z"/>
<path fill="#000000" opacity="1.000000" stroke="none" 
	d="
M833.859802,311.095764 
	C840.153809,314.435059 847.367432,314.845612 852.941895,318.682800 
	C852.249817,320.573425 851.392517,320.977722 850.611145,320.725800 
	C843.977112,318.586792 837.364563,316.379883 830.767151,314.129944 
	C829.608215,313.734711 828.543640,312.806244 829.162415,311.490326 
	C830.215698,309.250122 831.988953,310.682404 833.859802,311.095764 
z"/>
<path fill="#000000" opacity="1.000000" stroke="none" 
	d="
M842.830750,326.096008 
	C837.739380,322.674652 831.068848,323.208618 827.209778,317.997925 
	C835.455811,319.361908 843.234985,321.872314 851.030273,325.991669 
	C847.663452,330.186523 845.476379,326.962219 842.830750,326.096008 
z"/>
<path fill="#000000" opacity="1.000000" stroke="none" 
	d="
M845.192078,340.834656 
	C843.839661,342.526855 842.707520,341.336212 841.541809,340.931061 
	C836.390320,339.140625 831.229431,337.375824 826.103455,335.514832 
	C824.382141,334.889954 822.048950,334.937592 821.730774,332.464386 
	C822.241028,331.355072 823.092529,331.194397 823.890686,331.453217 
	C830.176514,333.491333 836.459106,335.542694 842.702515,337.705841 
	C843.930481,338.131317 845.002258,339.042603 845.192078,340.834656 
z"/>
<path fill="#000000" opacity="1.000000" stroke="none" 
	d="
M824.784302,324.710999 
	C833.184326,325.811646 840.467224,329.266632 847.995789,331.944031 
	C847.066772,334.727325 845.786011,334.811707 844.745483,334.320312 
	C838.886902,331.553558 832.679382,329.766602 826.602600,327.609161 
	C825.487122,327.213165 823.863586,326.846283 824.784302,324.710999 
z"/>
</svg>