<svg version="1.1" id="Layer_1" xmlns="http://www.w3.org/2000/svg" xmlns:xlink="http://www.w3.org/1999/xlink" x="0px" y="0px"
	 width="100%" viewBox="0 0 642 198" enable-background="new 0 0 642 198" xml:space="preserve">
<path fill="#172231" opacity="1.000000" stroke="none" 
	d="
M409.000000,199.000000 
	C272.666687,199.000000 136.833359,199.000000 1.000036,199.000000 
	C1.000024,133.000031 1.000024,67.000046 1.000012,1.000054 
	C214.999954,1.000036 428.999908,1.000036 642.999878,1.000018 
	C642.999939,66.999947 642.999939,132.999893 643.000000,198.999908 
	C565.166687,199.000000 487.333344,199.000000 409.000000,199.000000 
M508.478210,150.495743 
	C508.972931,150.291534 509.467651,150.087341 510.740021,149.916809 
	C511.476288,149.689301 512.212585,149.461792 513.465088,149.414551 
	C513.964722,149.237473 514.464417,149.060410 515.736206,148.943634 
	C516.473694,148.735275 517.211182,148.526917 518.556702,148.498840 
	C519.353516,148.279358 520.150391,148.059875 521.766113,147.914490 
	C522.827454,147.677048 523.888733,147.439621 525.561157,147.394409 
	C526.368713,147.195587 527.176331,146.996750 528.840820,146.887390 
	C530.534607,146.645157 532.228333,146.402924 534.576965,146.408905 
	C535.699707,146.226486 536.822510,146.044083 538.878235,145.979614 
	C543.579773,145.731689 548.281311,145.483765 553.865051,145.545563 
	C558.258240,145.647888 562.651428,145.750214 567.368835,146.135162 
	C567.911926,146.092773 568.454956,146.050400 569.773193,146.254517 
	C572.198364,146.452484 574.623535,146.650452 577.364258,147.149353 
	C577.916138,147.124512 578.468079,147.099670 579.726746,147.358292 
	C581.495667,147.535385 583.264526,147.712479 585.468018,148.219986 
	C585.995483,148.205643 586.522888,148.191299 587.787231,148.531357 
	C588.864014,148.656479 589.940796,148.781586 591.643799,149.318604 
	C596.495300,150.515244 601.371338,151.621979 606.191162,152.934937 
	C610.607788,154.138062 614.963684,155.563797 619.346375,156.891434 
	C613.982727,150.148056 601.089172,143.656204 591.250916,141.157791 
	C590.510315,140.840347 589.769775,140.522888 588.692078,139.675568 
	C587.686951,139.494324 586.681824,139.313095 584.901062,139.168121 
	C575.603638,138.023834 566.306152,136.879562 556.122498,135.449463 
	C552.426819,135.557846 548.731079,135.666229 544.338928,135.514633 
	C542.904358,135.705170 541.469788,135.895721 539.171326,135.942871 
	C537.459229,136.212189 535.747192,136.481491 533.440613,136.539276 
	C532.646790,136.748459 531.852905,136.957657 530.278381,137.066696 
	C529.530762,137.275620 528.783203,137.484543 527.306702,137.538910 
	C524.863037,138.135239 522.419373,138.731583 519.355652,139.412170 
	C518.592041,139.679535 517.828369,139.946899 516.354065,140.216965 
	C514.172607,140.987366 511.991180,141.757767 509.054840,142.554977 
	C507.481720,143.260574 505.908600,143.966156 503.644928,144.718109 
	C497.741577,148.095657 491.838257,151.473190 485.376068,154.962692 
	C484.639008,155.462097 483.901978,155.961502 482.516205,156.900482 
	C484.236755,156.900482 485.126678,156.900482 486.594940,156.914688 
	C493.713043,154.723145 500.831177,152.531616 508.478210,150.495743 
M584.821289,122.103851 
	C590.869873,125.632713 596.918518,129.161575 603.193176,133.150604 
	C603.780945,132.730698 604.368713,132.310791 604.716919,131.130646 
	C604.278748,128.510696 603.899170,125.879326 603.390503,123.273140 
	C602.283142,117.599319 603.646729,113.687653 608.897644,109.979187 
	C619.380920,102.575378 624.713745,92.196854 622.124573,78.870361 
	C618.814026,61.830879 595.125183,45.775131 577.039917,48.444897 
	C577.639526,49.988735 578.223633,51.492676 578.072998,53.020367 
	C575.986145,53.707932 573.899292,54.395496 571.278259,54.683094 
	C554.414673,25.898199 505.745667,24.223497 487.055511,51.807373 
	C481.872650,59.456478 480.612427,67.768883 483.457336,76.579575 
	C486.016357,84.504990 491.045227,90.675934 498.031921,95.015213 
	C501.368927,97.087769 502.503021,99.526711 502.063904,103.215385 
	C501.557526,107.469452 501.279816,111.750755 500.809021,117.081947 
	C505.067413,114.778618 509.207520,113.435478 512.143372,110.767311 
	C518.529175,104.963799 525.758240,103.148300 534.337219,104.481606 
	C534.896790,104.280685 535.456299,104.079773 536.757568,103.651039 
	C538.809265,103.357277 540.860901,103.063515 543.218201,103.398888 
	C544.523621,105.039642 545.829041,106.680397 546.738403,108.907372 
	C545.536865,109.213104 544.335327,109.518845 542.910461,109.881386 
	C548.145264,115.074478 552.370789,116.877953 568.206787,121.242203 
	C569.135437,121.170540 570.064148,121.098885 571.879272,120.845711 
	C574.587341,120.901031 577.295410,120.956352 580.537231,121.515450 
	C581.748230,121.652237 582.959229,121.789032 584.821289,122.103851 
M259.369019,96.013237 
	C260.322845,104.054008 264.500366,110.135674 270.104431,113.772484 
	C267.243225,118.360779 263.913879,122.176834 262.339142,126.615379 
	C260.425201,132.010025 263.662842,136.432922 268.219391,139.996674 
	C267.261658,140.609406 266.763824,140.993271 266.212463,141.270706 
	C259.921448,144.436386 255.840286,149.137253 256.112335,156.549194 
	C256.390503,164.128281 261.055237,168.669907 267.459198,171.663574 
	C270.000946,172.851776 272.751740,173.765594 275.505249,174.298584 
	C288.009521,176.719025 300.440155,176.277985 312.479523,171.989746 
	C316.317810,170.622635 320.082855,168.446060 323.223785,165.845612 
	C330.714752,159.643692 333.446564,151.442047 330.553558,142.076111 
	C327.788300,133.123795 320.117432,131.014496 311.924805,130.561935 
	C304.109192,130.130219 296.266205,130.214828 288.439728,129.943466 
	C286.300049,129.869263 284.045471,129.675079 282.075928,128.925537 
	C279.061829,127.778473 277.847351,125.396652 278.785370,122.087616 
	C279.717957,118.797684 281.671295,118.698868 284.841644,118.905426 
	C290.904938,119.300468 297.288727,119.703430 303.086823,118.270981 
	C317.516205,114.706131 324.903076,102.352852 321.983765,88.303497 
	C321.551208,86.221741 320.766602,84.213142 319.945312,81.515106 
	C324.007538,81.515106 327.746490,81.515106 331.474304,81.515106 
	C331.474304,76.666946 331.474304,72.434990 331.474304,68.454323 
	C317.473694,67.738197 303.865784,66.968040 290.249268,66.406845 
	C287.452393,66.291573 284.581848,66.748627 281.816071,67.298271 
	C267.171478,70.208611 258.856628,80.544495 259.369019,96.013237 
M99.292168,124.215813 
	C97.338669,122.031021 95.385178,119.846222 93.503044,117.741241 
	C90.098984,120.243134 87.306671,122.644402 84.198128,124.522163 
	C66.980125,134.922974 46.296158,127.943367 39.327908,109.249092 
	C35.542439,99.093521 35.448917,88.649376 39.114273,78.422058 
	C45.298573,61.166191 61.309086,53.706364 78.560875,60.024704 
	C82.269615,61.383003 85.654388,63.636230 89.163223,65.523987 
	C90.277702,66.123581 91.310600,66.874794 92.539841,67.657928 
	C96.015717,63.559612 99.292450,59.696098 102.469269,55.950386 
	C88.028130,39.115200 60.517223,35.584854 40.500778,47.435459 
	C21.572578,58.641781 12.432200,81.279060 17.017731,105.594170 
	C23.489742,139.912491 62.424564,157.722321 91.701805,139.573563 
	C96.077538,136.861084 99.690483,132.918121 103.718773,129.491241 
	C101.888672,127.295723 100.826622,126.021606 99.292168,124.215813 
M180.737839,81.805992 
	C170.027649,67.515686 155.488846,64.066963 138.953400,67.878738 
	C120.032486,72.240417 109.243134,89.604370 111.040947,111.624374 
	C112.512291,129.645660 125.669624,143.457672 143.774719,145.986908 
	C162.694580,148.629974 179.547150,139.453003 185.451065,122.541306 
	C190.294342,108.667793 189.360321,95.054001 180.737839,81.805992 
M405.047150,136.494171 
	C409.261322,142.619766 407.530548,148.322495 403.959656,154.013306 
	C399.784241,160.667511 393.257751,159.498779 386.712524,158.855484 
	C385.730988,163.961243 384.834381,168.625366 383.894897,173.512405 
	C385.008820,173.835281 385.763702,174.124451 386.545288,174.270294 
	C404.049561,177.536896 416.247253,171.150558 422.970093,154.053360 
	C433.863129,126.350716 444.201599,98.429909 454.742126,70.589088 
	C455.005310,69.894035 454.893982,69.057190 454.995667,67.819328 
	C449.885162,67.819328 445.063568,68.019485 440.268738,67.747566 
	C437.174072,67.572067 435.919434,68.837982 435.042145,71.618111 
	C431.088898,84.145912 426.953827,96.616341 422.883453,109.107185 
	C421.175507,114.348534 419.465637,119.589249 417.522308,125.549011 
	C416.930664,124.143669 416.645874,123.555458 416.430481,122.942856 
	C410.473419,106.001068 404.559723,89.043800 398.510681,72.134956 
	C397.962006,70.601257 396.621887,68.263680 395.527161,68.193077 
	C389.517242,67.805412 383.469238,68.008087 376.606476,68.008087 
	C386.292969,91.273453 395.553284,113.515205 405.047150,136.494171 
M364.783020,122.289459 
	C364.783020,94.401688 364.783020,66.513908 364.783020,38.729774 
	C357.887970,38.729774 351.648560,38.729774 345.081940,38.729774 
	C345.081940,60.000019 345.075989,80.801743 345.084717,101.603462 
	C345.088501,110.594009 344.936798,119.590004 345.201385,128.573349 
	C345.414948,135.825958 347.916565,142.064255 355.322235,144.885803 
	C362.162598,147.491928 368.982178,146.734177 376.171783,144.216003 
	C375.463745,139.529358 374.806091,135.176331 374.159363,130.895447 
	C365.848694,131.038269 365.059143,130.351715 364.783020,122.289459 
M245.302719,66.611107 
	C234.522202,66.256516 227.754044,72.910126 221.647446,81.192413 
	C220.573959,76.274170 219.698212,72.261902 218.830597,68.286880 
	C213.576279,68.286880 208.692047,68.286880 203.854370,68.286880 
	C203.854370,94.016930 203.854370,119.371437 203.854370,144.691742 
	C210.577011,144.691742 216.801743,144.691742 223.359268,144.691742 
	C223.359268,129.163910 223.183884,114.023407 223.516693,98.894081 
	C223.578522,96.082840 225.092590,92.805016 226.967255,90.631683 
	C231.441895,85.444138 237.543625,83.348389 244.407654,83.550568 
	C246.196075,83.603241 247.987366,83.558495 249.974579,83.558495 
	C250.467209,78.196671 250.948257,72.960793 251.460983,67.380135 
	C249.326813,67.085480 247.715637,66.863037 245.302719,66.611107 
z"/>
<path fill="#FBFBFB" opacity="1.000000" stroke="none" 
	d="
M534.013977,104.091400 
	C525.758240,103.148300 518.529175,104.963799 512.143372,110.767311 
	C509.207520,113.435478 505.067413,114.778618 500.809021,117.081947 
	C501.279816,111.750755 501.557526,107.469452 502.063904,103.215385 
	C502.503021,99.526711 501.368927,97.087769 498.031921,95.015213 
	C491.045227,90.675934 486.016357,84.504990 483.457336,76.579575 
	C480.612427,67.768883 481.872650,59.456478 487.055511,51.807373 
	C505.745667,24.223497 554.414673,25.898199 571.588684,55.262310 
	C577.109375,68.797943 574.533203,81.108704 564.395691,90.734001 
	C558.278564,96.542000 551.048035,100.496857 542.912598,102.769745 
	C540.860901,103.063515 538.809265,103.357277 536.208679,103.621201 
	C535.111206,103.758034 534.562561,103.924721 534.013977,104.091400 
z"/>
<path fill="#F7F8F8" opacity="1.000000" stroke="none" 
	d="
M259.317017,95.583588 
	C258.856628,80.544495 267.171478,70.208611 281.816071,67.298271 
	C284.581848,66.748627 287.452393,66.291573 290.249268,66.406845 
	C303.865784,66.968040 317.473694,67.738197 331.474304,68.454323 
	C331.474304,72.434990 331.474304,76.666946 331.474304,81.515106 
	C327.746490,81.515106 324.007538,81.515106 319.945312,81.515106 
	C320.766602,84.213142 321.551208,86.221741 321.983765,88.303497 
	C324.903076,102.352852 317.516205,114.706131 303.086823,118.270981 
	C297.288727,119.703430 290.904938,119.300468 284.841644,118.905426 
	C281.671295,118.698868 279.717957,118.797684 278.785370,122.087616 
	C277.847351,125.396652 279.061829,127.778473 282.075928,128.925537 
	C284.045471,129.675079 286.300049,129.869263 288.439728,129.943466 
	C296.266205,130.214828 304.109192,130.130219 311.924805,130.561935 
	C320.117432,131.014496 327.788300,133.123795 330.553558,142.076111 
	C333.446564,151.442047 330.714752,159.643692 323.223785,165.845612 
	C320.082855,168.446060 316.317810,170.622635 312.479523,171.989746 
	C300.440155,176.277985 288.009521,176.719025 275.505249,174.298584 
	C272.751740,173.765594 270.000946,172.851776 267.459198,171.663574 
	C261.055237,168.669907 256.390503,164.128281 256.112335,156.549194 
	C255.840286,149.137253 259.921448,144.436386 266.212463,141.270706 
	C266.763824,140.993271 267.261658,140.609406 268.219391,139.996674 
	C263.662842,136.432922 260.425201,132.010025 262.339142,126.615379 
	C263.913879,122.176834 267.243225,118.360779 270.104431,113.772484 
	C264.500366,110.135674 260.322845,104.054008 259.317017,95.583588 
M312.989868,154.471176 
	C313.819275,148.012451 312.233063,145.806274 305.837250,145.378326 
	C297.735687,144.836212 289.575897,144.952942 281.515106,144.092987 
	C276.729218,143.582428 274.707214,145.641510 273.695801,149.630142 
	C272.399719,154.741425 275.129364,159.390335 280.747467,161.030212 
	C289.440094,163.567520 298.193726,163.296906 306.624298,159.984772 
	C308.928375,159.079559 310.690216,156.794144 312.989868,154.471176 
M305.159698,90.865059 
	C303.314026,82.518669 297.262207,78.692101 288.479370,80.318039 
	C281.337219,81.640236 277.120422,87.977196 278.353760,95.534752 
	C279.623047,103.312729 285.717133,107.642944 293.897247,106.579414 
	C301.367432,105.608185 305.122681,100.693466 305.159698,90.865059 
z"/>
<path fill="#F8F8F9" opacity="1.000000" stroke="none" 
	d="
M99.528366,124.481644 
	C100.826622,126.021606 101.888672,127.295723 103.718773,129.491241 
	C99.690483,132.918121 96.077538,136.861084 91.701805,139.573563 
	C62.424564,157.722321 23.489742,139.912491 17.017731,105.594170 
	C12.432200,81.279060 21.572578,58.641781 40.500778,47.435459 
	C60.517223,35.584854 88.028130,39.115200 102.469269,55.950386 
	C99.292450,59.696098 96.015717,63.559612 92.539841,67.657928 
	C91.310600,66.874794 90.277702,66.123581 89.163223,65.523987 
	C85.654388,63.636230 82.269615,61.383003 78.560875,60.024704 
	C61.309086,53.706364 45.298573,61.166191 39.114273,78.422058 
	C35.448917,88.649376 35.542439,99.093521 39.327908,109.249092 
	C46.296158,127.943367 66.980125,134.922974 84.198128,124.522163 
	C87.306671,122.644402 90.098984,120.243134 93.503044,117.741241 
	C95.385178,119.846222 97.338669,122.031021 99.528366,124.481644 
z"/>
<path fill="#F9F9F9" opacity="1.000000" stroke="none" 
	d="
M180.937622,82.105774 
	C189.360321,95.054001 190.294342,108.667793 185.451065,122.541306 
	C179.547150,139.453003 162.694580,148.629974 143.774719,145.986908 
	C125.669624,143.457672 112.512291,129.645660 111.040947,111.624374 
	C109.243134,89.604370 120.032486,72.240417 138.953400,67.878738 
	C155.488846,64.066963 170.027649,67.515686 180.937622,82.105774 
M168.681747,107.410011 
	C167.934937,103.005859 167.720139,98.424698 166.326416,94.235794 
	C163.725906,86.419868 157.544128,82.369377 149.654037,82.396072 
	C141.642426,82.423187 135.659302,86.399513 132.776337,94.088158 
	C129.688065,102.324379 129.567337,110.739220 132.717606,118.983101 
	C135.642181,126.636330 142.191681,130.840591 150.183105,130.680298 
	C158.208038,130.519318 164.365814,126.033554 166.875916,118.056282 
	C167.863647,114.917160 168.095276,111.540123 168.681747,107.410011 
z"/>
<path fill="#F8F9F9" opacity="1.000000" stroke="none" 
	d="
M404.930389,136.125565 
	C395.553284,113.515205 386.292969,91.273453 376.606476,68.008087 
	C383.469238,68.008087 389.517242,67.805412 395.527161,68.193077 
	C396.621887,68.263680 397.962006,70.601257 398.510681,72.134956 
	C404.559723,89.043800 410.473419,106.001068 416.430481,122.942856 
	C416.645874,123.555458 416.930664,124.143669 417.522308,125.549011 
	C419.465637,119.589249 421.175507,114.348534 422.883453,109.107185 
	C426.953827,96.616341 431.088898,84.145912 435.042145,71.618111 
	C435.919434,68.837982 437.174072,67.572067 440.268738,67.747566 
	C445.063568,68.019485 449.885162,67.819328 454.995667,67.819328 
	C454.893982,69.057190 455.005310,69.894035 454.742126,70.589088 
	C444.201599,98.429909 433.863129,126.350716 422.970093,154.053360 
	C416.247253,171.150558 404.049561,177.536896 386.545288,174.270294 
	C385.763702,174.124451 385.008820,173.835281 383.894897,173.512405 
	C384.834381,168.625366 385.730988,163.961243 386.712524,158.855484 
	C393.257751,159.498779 399.784241,160.667511 403.959656,154.013306 
	C407.530548,148.322495 409.261322,142.619766 404.930389,136.125565 
z"/>
<path fill="#F9FAFA" opacity="1.000000" stroke="none" 
	d="
M602.967102,132.690430 
	C596.918518,129.161575 590.869873,125.632713 584.366638,121.736801 
	C582.609131,121.250389 581.306335,121.131027 580.003479,121.011665 
	C577.295410,120.956352 574.587341,120.901031 571.164307,120.770325 
	C569.617493,120.715324 568.785767,120.735718 567.953979,120.756104 
	C552.370789,116.877953 548.145264,115.074478 542.910461,109.881386 
	C544.335327,109.518845 545.536865,109.213104 547.320679,108.594818 
	C557.266479,105.080299 565.647827,100.807045 572.441833,92.961868 
	C582.448120,81.407417 585.423767,66.422157 578.807739,52.996613 
	C578.223633,51.492676 577.639526,49.988735 577.039917,48.444897 
	C595.125183,45.775131 618.814026,61.830879 622.124573,78.870361 
	C624.713745,92.196854 619.380920,102.575378 608.897644,109.979187 
	C603.646729,113.687653 602.283142,117.599319 603.390503,123.273140 
	C603.899170,125.879326 604.278748,128.510696 604.549744,131.735809 
	C603.910767,132.457458 603.438904,132.573944 602.967102,132.690430 
z"/>
<path fill="#F8F8F9" opacity="1.000000" stroke="none" 
	d="
M364.783325,122.757019 
	C365.059143,130.351715 365.848694,131.038269 374.159363,130.895447 
	C374.806091,135.176331 375.463745,139.529358 376.171783,144.216003 
	C368.982178,146.734177 362.162598,147.491928 355.322235,144.885803 
	C347.916565,142.064255 345.414948,135.825958 345.201385,128.573349 
	C344.936798,119.590004 345.088501,110.594009 345.084717,101.603462 
	C345.075989,80.801743 345.081940,60.000019 345.081940,38.729774 
	C351.648560,38.729774 357.887970,38.729774 364.783020,38.729774 
	C364.783020,66.513908 364.783020,94.401688 364.783325,122.757019 
z"/>
<path fill="#F8F8F9" opacity="1.000000" stroke="none" 
	d="
M245.703598,66.625854 
	C247.715637,66.863037 249.326813,67.085480 251.460983,67.380135 
	C250.948257,72.960793 250.467209,78.196671 249.974579,83.558495 
	C247.987366,83.558495 246.196075,83.603241 244.407654,83.550568 
	C237.543625,83.348389 231.441895,85.444138 226.967255,90.631683 
	C225.092590,92.805016 223.578522,96.082840 223.516693,98.894081 
	C223.183884,114.023407 223.359268,129.163910 223.359268,144.691742 
	C216.801743,144.691742 210.577011,144.691742 203.854370,144.691742 
	C203.854370,119.371437 203.854370,94.016930 203.854370,68.286880 
	C208.692047,68.286880 213.576279,68.286880 218.830597,68.286880 
	C219.698212,72.261902 220.573959,76.274170 221.647446,81.192413 
	C227.754044,72.910126 234.522202,66.256516 245.703598,66.625854 
z"/>
<path fill="#1D2736" opacity="1.000000" stroke="none" 
	d="
M578.440369,53.008488 
	C585.423767,66.422157 582.448120,81.407417 572.441833,92.961868 
	C565.647827,100.807045 557.266479,105.080299 547.518738,108.301697 
	C545.829041,106.680397 544.523621,105.039642 543.065430,103.084312 
	C551.048035,100.496857 558.278564,96.542000 564.395691,90.734001 
	C574.533203,81.108704 577.109375,68.797943 571.855774,55.462292 
	C573.899292,54.395496 575.986145,53.707932 578.440369,53.008488 
z"/>
<path fill="#E8C684" opacity="1.000000" stroke="none" 
	d="
M589.029175,140.205444 
	C589.769775,140.522888 590.510315,140.840347 591.678467,141.671753 
	C591.743164,144.426056 591.380371,146.666382 591.017578,148.906708 
	C589.940796,148.781586 588.864014,148.656479 587.318970,148.152649 
	C586.244934,147.812500 585.639160,147.851028 585.033447,147.889572 
	C583.264526,147.712479 581.495667,147.535385 579.235596,147.006531 
	C578.179199,146.719330 577.613953,146.783875 577.048706,146.848434 
	C574.623535,146.650452 572.198364,146.452484 569.243652,145.928986 
	C568.157654,145.686493 567.601135,145.769516 567.044617,145.852539 
	C562.651428,145.750214 558.258240,145.647888 553.451172,145.068451 
	C555.904846,142.421570 558.772400,140.251801 561.810974,137.952560 
	C559.832642,137.039124 558.420654,136.387207 557.008728,135.735291 
	C566.306152,136.879562 575.603638,138.023834 585.463745,139.459839 
	C587.027344,139.902847 588.028259,140.054153 589.029175,140.205444 
z"/>
<path fill="#F5D28F" opacity="1.000000" stroke="none" 
	d="
M556.565613,135.592377 
	C558.420654,136.387207 559.832642,137.039124 561.810974,137.952560 
	C558.772400,140.251801 555.904846,142.421570 553.010071,144.913605 
	C548.281311,145.483765 543.579773,145.731689 538.205444,145.707733 
	C536.329163,145.677475 535.125671,145.919098 533.922119,146.160706 
	C532.228333,146.402924 530.534607,146.645157 528.447510,146.626923 
	C528.054199,146.366455 528.038330,145.929504 528.015625,145.572922 
	C527.175598,143.535812 526.358337,141.855286 525.460571,140.009247 
	C526.245850,139.302994 527.140747,138.498215 528.035583,137.693451 
	C528.783203,137.484543 529.530762,137.275620 530.852478,137.311905 
	C532.296082,137.288345 533.165588,137.019577 534.035095,136.750809 
	C535.747192,136.481491 537.459229,136.212189 539.838013,136.237793 
	C542.014954,136.280029 543.525146,136.027313 545.035400,135.774597 
	C548.731079,135.666229 552.426819,135.557846 556.565613,135.592377 
z"/>
<path fill="#E8C684" opacity="1.000000" stroke="none" 
	d="
M527.671143,137.616180 
	C527.140747,138.498215 526.245850,139.302994 525.460571,140.009247 
	C526.358337,141.855286 527.175598,143.535812 527.715454,145.599747 
	C526.608643,146.389496 525.779358,146.795853 524.950073,147.202194 
	C523.888733,147.439621 522.827454,147.677048 521.168762,147.681427 
	C519.697144,147.738434 518.822937,148.028488 517.948669,148.318542 
	C517.211182,148.526917 516.473694,148.735275 515.208984,148.736938 
	C514.104126,148.764938 513.526489,148.999619 512.948853,149.234314 
	C512.212585,149.461792 511.476288,149.689301 510.203644,149.722717 
	C509.094604,149.799118 508.521942,150.069611 507.949280,150.340088 
	C500.831177,152.531616 493.713043,154.723145 486.294739,156.565872 
	C485.974640,155.761612 485.954803,155.306183 485.934937,154.850739 
	C491.838257,151.473190 497.741577,148.095657 504.380981,144.810226 
	C506.455872,145.435669 507.794678,145.968979 509.613281,146.693390 
	C509.691437,145.036316 509.750610,143.782242 509.809753,142.528168 
	C511.991180,141.757767 514.172607,140.987366 516.895020,140.391418 
	C518.282532,140.153214 519.129089,139.740555 519.975708,139.327911 
	C522.419373,138.731583 524.863037,138.135239 527.671143,137.616180 
z"/>
<path fill="#D7B474" opacity="1.000000" stroke="none" 
	d="
M591.330688,149.112656 
	C591.380371,146.666382 591.743164,144.426056 592.021606,141.884613 
	C601.089172,143.656204 613.982727,150.148056 619.346375,156.891434 
	C614.963684,155.563797 610.607788,154.138062 606.191162,152.934937 
	C601.371338,151.621979 596.495300,150.515244 591.330688,149.112656 
z"/>
<path fill="#D7B778" opacity="1.000000" stroke="none" 
	d="
M509.432312,142.541565 
	C509.750610,143.782242 509.691437,145.036316 509.613281,146.693390 
	C507.794678,145.968979 506.455872,145.435669 504.726257,144.787048 
	C505.908600,143.966156 507.481720,143.260574 509.432312,142.541565 
z"/>
<path fill="#E8C684" opacity="1.000000" stroke="none" 
	d="
M544.687134,135.644623 
	C543.525146,136.027313 542.014954,136.280029 540.269958,136.309509 
	C541.469788,135.895721 542.904358,135.705170 544.687134,135.644623 
z"/>
<path fill="#D7B778" opacity="1.000000" stroke="none" 
	d="
M534.249512,146.284805 
	C535.125671,145.919098 536.329163,145.677475 537.739014,145.648773 
	C536.822510,146.044083 535.699707,146.226486 534.249512,146.284805 
z"/>
<path fill="#D7B778" opacity="1.000000" stroke="none" 
	d="
M485.655518,154.906708 
	C485.954803,155.306183 485.974640,155.761612 486.005554,156.558777 
	C485.126678,156.900482 484.236755,156.900482 482.516205,156.900482 
	C483.901978,155.961502 484.639008,155.462097 485.655518,154.906708 
z"/>
<path fill="#27313F" opacity="1.000000" stroke="none" 
	d="
M580.270386,121.263557 
	C581.306335,121.131027 582.609131,121.250389 584.041138,121.647781 
	C582.959229,121.789032 581.748230,121.652237 580.270386,121.263557 
z"/>
<path fill="#232D39" opacity="1.000000" stroke="none" 
	d="
M588.860596,139.940506 
	C588.028259,140.054153 587.027344,139.902847 585.851562,139.441711 
	C586.681824,139.313095 587.686951,139.494324 588.860596,139.940506 
z"/>
<path fill="#E8C684" opacity="1.000000" stroke="none" 
	d="
M533.737854,136.645050 
	C533.165588,137.019577 532.296082,137.288345 531.242798,137.361984 
	C531.852905,136.957657 532.646790,136.748459 533.737854,136.645050 
z"/>
<path fill="#27313F" opacity="1.000000" stroke="none" 
	d="
M568.080383,120.999153 
	C568.785767,120.735718 569.617493,120.715324 570.721069,120.861084 
	C570.064148,121.098885 569.135437,121.170540 568.080383,120.999153 
z"/>
<path fill="#D7B778" opacity="1.000000" stroke="none" 
	d="
M525.255615,147.298309 
	C525.779358,146.795853 526.608643,146.389496 527.738159,145.956329 
	C528.038330,145.929504 528.054199,146.366455 528.019043,146.582184 
	C527.176331,146.996750 526.368713,147.195587 525.255615,147.298309 
z"/>
<path fill="#D7B778" opacity="1.000000" stroke="none" 
	d="
M518.252686,148.408691 
	C518.822937,148.028488 519.697144,147.738434 520.759277,147.644394 
	C520.150391,148.059875 519.353516,148.279358 518.252686,148.408691 
z"/>
<path fill="#D7B778" opacity="1.000000" stroke="none" 
	d="
M519.665649,139.370026 
	C519.129089,139.740555 518.282532,140.153214 517.250366,140.390076 
	C517.828369,139.946899 518.592041,139.679535 519.665649,139.370026 
z"/>
<path fill="#555D67" opacity="1.000000" stroke="none" 
	d="
M534.175598,104.286507 
	C534.562561,103.924721 535.111206,103.758034 535.837830,103.735107 
	C535.456299,104.079773 534.896790,104.280685 534.175598,104.286507 
z"/>
<path fill="#D7B778" opacity="1.000000" stroke="none" 
	d="
M567.206726,145.993851 
	C567.601135,145.769516 568.157654,145.686493 568.856079,145.805756 
	C568.454956,146.050400 567.911926,146.092773 567.206726,145.993851 
z"/>
<path fill="#D7B778" opacity="1.000000" stroke="none" 
	d="
M577.206482,146.998901 
	C577.613953,146.783875 578.179199,146.719330 578.882202,146.864807 
	C578.468079,147.099670 577.916138,147.124512 577.206482,146.998901 
z"/>
<path fill="#D7B778" opacity="1.000000" stroke="none" 
	d="
M585.250732,148.054779 
	C585.639160,147.851028 586.244934,147.812500 586.950500,147.975464 
	C586.522888,148.191299 585.995483,148.205643 585.250732,148.054779 
z"/>
<path fill="#D7B778" opacity="1.000000" stroke="none" 
	d="
M513.206970,149.324432 
	C513.526489,148.999619 514.104126,148.764938 514.822876,148.706787 
	C514.464417,149.060410 513.964722,149.237473 513.206970,149.324432 
z"/>
<path fill="#D7B778" opacity="1.000000" stroke="none" 
	d="
M508.213745,150.417908 
	C508.521942,150.069611 509.094604,149.799118 509.814819,149.705872 
	C509.467651,150.087341 508.972931,150.291534 508.213745,150.417908 
z"/>
<path fill="#232D39" opacity="1.000000" stroke="none" 
	d="
M603.080139,132.920532 
	C603.438904,132.573944 603.910767,132.457458 604.669556,132.115936 
	C604.368713,132.310791 603.780945,132.730698 603.080139,132.920532 
z"/>
<path fill="#202A38" opacity="1.000000" stroke="none" 
	d="
M312.845398,154.806641 
	C310.690216,156.794144 308.928375,159.079559 306.624298,159.984772 
	C298.193726,163.296906 289.440094,163.567520 280.747467,161.030212 
	C275.129364,159.390335 272.399719,154.741425 273.695801,149.630142 
	C274.707214,145.641510 276.729218,143.582428 281.515106,144.092987 
	C289.575897,144.952942 297.735687,144.836212 305.837250,145.378326 
	C312.233063,145.806274 313.819275,148.012451 312.845398,154.806641 
z"/>
<path fill="#1E2938" opacity="1.000000" stroke="none" 
	d="
M305.204742,91.293343 
	C305.122681,100.693466 301.367432,105.608185 293.897247,106.579414 
	C285.717133,107.642944 279.623047,103.312729 278.353760,95.534752 
	C277.120422,87.977196 281.337219,81.640236 288.479370,80.318039 
	C297.262207,78.692101 303.314026,82.518669 305.204742,91.293343 
z"/>
<path fill="#192433" opacity="1.000000" stroke="none" 
	d="
M168.676483,107.840721 
	C168.095276,111.540123 167.863647,114.917160 166.875916,118.056282 
	C164.365814,126.033554 158.208038,130.519318 150.183105,130.680298 
	C142.191681,130.840591 135.642181,126.636330 132.717606,118.983101 
	C129.567337,110.739220 129.688065,102.324379 132.776337,94.088158 
	C135.659302,86.399513 141.642426,82.423187 149.654037,82.396072 
	C157.544128,82.369377 163.725906,86.419868 166.326416,94.235794 
	C167.720139,98.424698 167.934937,103.005859 168.676483,107.840721 
z"/>
</svg>