<svg version="1.1" id="Layer_1" xmlns="http://www.w3.org/2000/svg" xmlns:xlink="http://www.w3.org/1999/xlink" x="0px" y="0px"
	 width="100%" viewBox="0 0 735 198" enable-background="new 0 0 735 198" xml:space="preserve">
<path fill="#FEFEFD" opacity="1.000000" stroke="none" 
	d="
M482.000000,199.000000 
	C321.333344,199.000000 161.166672,199.000000 1.000000,199.000000 
	C1.000000,133.000000 1.000000,67.000000 1.000000,1.000000 
	C246.000000,1.000000 491.000000,1.000000 736.000000,1.000000 
	C736.000000,67.000000 736.000000,133.000000 736.000000,199.000000 
	C651.500000,199.000000 567.000000,199.000000 482.000000,199.000000 
M459.514099,57.511761 
	C459.019745,57.702312 458.525421,57.892868 457.287231,58.008091 
	C447.909485,60.130676 442.259430,66.916672 436.689575,75.715797 
	C436.260040,69.217392 435.927155,64.181419 435.607208,59.340942 
	C428.400818,59.340942 421.848480,59.340942 415.458191,59.340942 
	C415.458191,89.783440 415.458191,119.796944 415.458191,149.762726 
	C422.809692,149.762726 429.746185,149.762726 437.326477,149.762726 
	C437.326477,147.750076 437.325439,145.978928 437.326630,144.207779 
	C437.335938,130.231110 437.440369,116.253632 437.320831,102.278069 
	C437.245209,93.436562 441.239716,86.922928 448.444366,82.361900 
	C451.333557,80.532829 454.788818,79.597931 458.487244,78.470940 
	C458.985168,78.297043 459.483063,78.123138 460.872955,78.127991 
	C463.110718,78.127991 465.348450,78.127991 467.987549,78.127991 
	C467.987549,70.816925 467.987549,64.191895 467.987549,56.918411 
	C465.103424,57.216988 462.558868,57.480412 459.514099,57.511761 
M588.223755,26.512039 
	C588.268860,26.719900 588.313904,26.927759 588.157898,28.034933 
	C588.157043,62.134270 588.143188,96.233620 588.167908,130.332932 
	C588.172119,136.145370 588.342041,141.957672 588.369629,148.740051 
	C588.879456,149.052567 589.389221,149.365082 590.674622,149.982391 
	C597.092163,149.982391 603.509705,149.982391 610.370850,149.982391 
	C610.370850,107.877357 610.370850,66.380203 610.700439,24.294603 
	C610.439575,23.916243 610.183594,23.211206 609.917175,23.207266 
	C603.130554,23.106955 596.342468,23.048058 589.555908,23.111359 
	C589.097778,23.115631 588.649170,24.138067 588.223633,25.297813 
	C588.272766,25.495613 588.321960,25.693415 588.223755,26.512039 
M548.328918,59.141811 
	C547.477661,60.206551 546.121216,61.166840 545.875183,62.356716 
	C545.272034,65.274055 545.181091,68.297279 544.817322,71.947182 
	C530.495117,51.692204 501.838531,53.427845 487.438812,67.798019 
	C473.561554,81.646744 469.678284,106.138863 478.691193,125.428612 
	C486.503815,142.149460 502.383911,150.757111 520.669373,148.311371 
	C530.109802,147.048691 537.822876,142.798752 544.295288,134.089096 
	C544.295288,138.097824 544.365540,140.707413 544.283691,143.312210 
	C543.808350,158.433899 536.956787,165.897537 521.955872,167.447067 
	C518.999329,167.752457 515.967590,167.655731 512.995544,167.423798 
	C503.588806,166.689697 495.534607,162.565887 488.096771,156.644653 
	C484.371368,161.790085 480.893890,166.593140 477.169861,171.736710 
	C478.892090,173.125702 480.335724,174.471497 481.950562,175.564331 
	C498.451813,186.731384 516.608643,188.743240 535.527466,184.313583 
	C554.458679,179.880997 565.941895,164.624268 566.309021,144.246262 
	C566.309021,115.921875 566.309021,87.597481 566.309021,59.362431 
	C560.321228,59.362431 554.727966,59.362431 548.328918,59.141811 
M47.400734,119.905708 
	C54.340916,113.523834 60.125462,104.928612 72.594337,107.460945 
	C72.594337,97.011292 72.670631,86.742180 72.427803,76.480629 
	C72.411072,75.774025 70.058273,74.679680 68.711136,74.539093 
	C65.837288,74.239174 62.910408,74.447357 58.549644,74.447357 
	C66.185165,65.215698 72.975845,57.005489 80.239342,48.223621 
	C87.576141,57.036102 94.482697,65.331810 102.355095,74.787621 
	C97.957512,74.787621 95.180855,74.958382 92.434486,74.742966 
	C89.238930,74.492325 87.892372,75.529984 88.075661,78.920898 
	C88.318123,83.406479 88.117752,87.915428 88.126747,92.414291 
	C88.159012,108.561287 88.162048,108.561279 104.375725,107.649948 
	C112.657875,107.184418 117.951195,101.762001 117.984940,93.453026 
	C118.053955,76.457443 118.070763,59.461220 118.004280,42.465672 
	C117.970604,33.855877 112.644310,28.367472 103.928070,28.326395 
	C80.601074,28.216463 57.272491,28.241249 33.945713,28.392937 
	C25.840710,28.445644 20.241024,33.826794 20.145390,41.839046 
	C19.938583,59.165497 19.957233,76.497719 20.156361,93.824440 
	C20.237530,100.887184 24.527407,105.628708 31.414692,107.251404 
	C33.150093,107.660278 34.936745,107.851624 37.487999,108.273163 
	C37.487999,114.551521 37.487999,120.732018 37.487999,126.912521 
	C37.943192,127.100960 38.398388,127.289391 38.853580,127.477829 
	C41.533184,125.119484 44.212788,122.761147 47.400734,119.905708 
M192.025055,77.643181 
	C191.822250,79.463348 191.598724,81.281479 191.419724,83.103989 
	C188.103348,116.871307 209.778000,146.066666 242.771774,151.454910 
	C265.373413,155.145996 284.796692,148.596024 300.637085,131.397079 
	C295.357056,126.534439 290.301208,121.878273 285.396271,117.361092 
	C282.228485,119.807350 278.771790,123.001007 274.839813,125.423027 
	C257.062469,136.373383 234.068817,131.664886 222.510574,114.764900 
	C216.351227,105.758972 214.354675,95.575943 214.920380,84.820480 
	C216.607254,52.749920 250.329453,35.471809 277.270660,52.915840 
	C280.444672,54.970966 283.298889,57.520081 286.585907,60.060093 
	C291.044098,54.605827 295.423248,49.248283 300.005310,43.642467 
	C298.100464,41.908710 296.687653,40.524761 295.174957,39.260380 
	C262.157623,11.663042 201.933380,23.908762 192.025055,77.643181 
M99.500076,155.967056 
	C101.332664,155.967239 103.213806,156.240509 104.990211,155.924667 
	C120.025528,153.251343 131.742752,158.593643 141.066971,170.320129 
	C142.701096,172.375259 145.215317,173.730576 147.323059,175.409088 
	C147.777878,175.184601 148.232697,174.960114 148.687515,174.735626 
	C148.687515,168.697250 148.687515,162.658859 148.687515,156.452744 
	C150.764801,156.227722 152.059967,156.126923 153.342957,155.941788 
	C159.881210,154.998398 164.858246,150.055450 164.922119,143.504761 
	C165.097534,125.514519 165.052979,107.519974 164.864151,89.529549 
	C164.800049,83.421959 160.993851,77.814461 155.638138,77.365211 
	C146.969086,76.638039 138.194427,77.169495 128.934616,77.169495 
	C128.934616,82.727425 129.096985,87.870972 128.902267,93.000961 
	C128.434341,105.329117 120.334938,114.968155 108.231140,117.125511 
	C103.693962,117.934219 98.954422,117.718689 94.305138,117.763596 
	C85.372200,117.849869 76.437843,117.788704 67.591629,117.788704 
	C67.300682,118.873840 67.067368,119.340912 67.066200,119.808556 
	C67.047569,127.305214 66.963882,134.803513 67.087929,142.298233 
	C67.227707,150.743484 72.417084,155.811005 81.007927,155.960999 
	C86.836929,156.062775 92.669296,155.971786 99.500076,155.967056 
M370.515045,149.058167 
	C387.140045,142.360901 396.658752,129.947739 399.014832,112.364510 
	C401.504547,93.783958 396.618866,77.580566 381.255035,65.800949 
	C364.281433,52.787098 337.494995,53.762379 321.348663,67.581474 
	C305.021729,81.555145 300.328186,108.231606 310.725342,127.960548 
	C321.504974,148.415253 345.176666,156.978806 370.515045,149.058167 
M632.311584,88.142059 
	C639.346558,105.755821 645.979980,123.546562 653.623535,140.892151 
	C656.492554,147.402969 655.639954,152.582809 652.711365,158.285233 
	C648.991333,165.528641 643.875732,168.041458 635.880493,166.232712 
	C634.114685,165.833252 632.393555,165.236435 630.171936,164.591095 
	C628.706543,170.796326 627.272400,176.869354 625.861084,182.845627 
	C640.971619,190.282379 660.501892,184.554901 669.608765,170.080032 
	C672.073486,166.162384 674.084045,161.885925 675.777649,157.568069 
	C686.286133,130.775742 696.652100,103.927467 707.048157,77.091095 
	C709.314575,71.240524 711.511230,65.362953 713.970947,58.890270 
	C707.092529,58.890270 700.950378,59.084396 694.829102,58.811440 
	C691.586243,58.666840 690.165039,59.818867 689.169556,62.840168 
	C684.900940,75.794907 680.415100,88.678452 675.961304,101.571671 
	C673.549133,108.554504 671.042236,115.504616 668.187439,123.573631 
	C667.178406,121.003029 666.568237,119.546104 666.030212,118.062996 
	C659.392700,99.766350 652.822205,81.444817 646.038635,63.202538 
	C645.433655,61.575733 643.527039,59.372814 642.112976,59.287193 
	C635.333069,58.876667 628.514648,59.102867 621.004822,59.102867 
	C624.819092,68.893860 628.427124,78.155487 632.311584,88.142059 
z"/>
<path fill="#3F4749" opacity="1.000000" stroke="none" 
	d="
M566.033081,145.011322 
	C565.941895,164.624268 554.458679,179.880997 535.527466,184.313583 
	C516.608643,188.743240 498.451813,186.731384 481.950562,175.564331 
	C480.335724,174.471497 478.892090,173.125702 477.169861,171.736710 
	C480.893890,166.593140 484.371368,161.790085 488.096771,156.644653 
	C495.534607,162.565887 503.588806,166.689697 512.995544,167.423798 
	C515.967590,167.655731 518.999329,167.752457 521.955872,167.447067 
	C536.956787,165.897537 543.808350,158.433899 544.283691,143.312210 
	C544.365540,140.707413 544.295288,138.097824 544.295288,134.089096 
	C537.822876,142.798752 530.109802,147.048691 520.669373,148.311371 
	C502.383911,150.757111 486.503815,142.149460 478.691193,125.428612 
	C469.678284,106.138863 473.561554,81.646744 487.438812,67.798019 
	C501.838531,53.427845 530.495117,51.692204 544.817322,71.947182 
	C545.181091,68.297279 545.272034,65.274055 545.875183,62.356716 
	C546.121216,61.166840 547.477661,60.206551 549.060181,59.479485 
	C551.446655,59.885975 553.101379,60.003586 554.756958,60.015778 
	C566.354126,60.101181 564.983521,58.781338 565.004822,70.527084 
	C565.046448,93.466652 564.993225,116.406418 565.060974,139.345871 
	C565.066589,141.235291 565.694397,143.122879 566.033081,145.011322 
M525.494446,76.733383 
	C513.152893,74.919350 503.509674,79.615509 499.011658,89.714371 
	C496.051178,96.361084 495.904907,103.333458 497.402161,110.278168 
	C500.224457,123.368973 510.350464,130.893051 523.040283,129.658585 
	C536.140442,128.384201 543.900513,119.735512 544.244568,106.002327 
	C544.294556,104.006615 544.303162,102.008041 544.262756,100.012177 
	C544.010193,87.545723 538.450073,80.400497 525.494446,76.733383 
z"/>
<path fill="#F37A4C" opacity="1.000000" stroke="none" 
	d="
M47.146561,120.154259 
	C44.212788,122.761147 41.533184,125.119484 38.853580,127.477829 
	C38.398388,127.289391 37.943192,127.100960 37.487999,126.912521 
	C37.487999,120.732018 37.487999,114.551521 37.487999,108.273163 
	C34.936745,107.851624 33.150093,107.660278 31.414692,107.251404 
	C24.527407,105.628708 20.237530,100.887184 20.156361,93.824440 
	C19.957233,76.497719 19.938583,59.165497 20.145390,41.839046 
	C20.241024,33.826794 25.840710,28.445644 33.945713,28.392937 
	C57.272491,28.241249 80.601074,28.216463 103.928070,28.326395 
	C112.644310,28.367472 117.970604,33.855877 118.004280,42.465672 
	C118.070763,59.461220 118.053955,76.457443 117.984940,93.453026 
	C117.951195,101.762001 112.657875,107.184418 104.375725,107.649948 
	C88.162048,108.561279 88.159012,108.561287 88.126747,92.414291 
	C88.117752,87.915428 88.318123,83.406479 88.075661,78.920898 
	C87.892372,75.529984 89.238930,74.492325 92.434486,74.742966 
	C95.180855,74.958382 97.957512,74.787621 102.355095,74.787621 
	C94.482697,65.331810 87.576141,57.036102 80.239342,48.223621 
	C72.975845,57.005489 66.185165,65.215698 58.549644,74.447357 
	C62.910408,74.447357 65.837288,74.239174 68.711136,74.539093 
	C70.058273,74.679680 72.411072,75.774025 72.427803,76.480629 
	C72.670631,86.742180 72.594337,97.011292 72.594337,107.460945 
	C60.125462,104.928612 54.340916,113.523834 47.146561,120.154259 
z"/>
<path fill="#3F4749" opacity="1.000000" stroke="none" 
	d="
M192.082764,77.213676 
	C201.933380,23.908762 262.157623,11.663042 295.174957,39.260380 
	C296.687653,40.524761 298.100464,41.908710 300.005310,43.642467 
	C295.423248,49.248283 291.044098,54.605827 286.585907,60.060093 
	C283.298889,57.520081 280.444672,54.970966 277.270660,52.915840 
	C250.329453,35.471809 216.607254,52.749920 214.920380,84.820480 
	C214.354675,95.575943 216.351227,105.758972 222.510574,114.764900 
	C234.068817,131.664886 257.062469,136.373383 274.839813,125.423027 
	C278.771790,123.001007 282.228485,119.807350 285.396271,117.361092 
	C290.301208,121.878273 295.357056,126.534439 300.637085,131.397079 
	C284.796692,148.596024 265.373413,155.145996 242.771774,151.454910 
	C209.778000,146.066666 188.103348,116.871307 191.419724,83.103989 
	C191.598724,81.281479 191.822250,79.463348 192.082764,77.213676 
z"/>
<path fill="#F4794B" opacity="1.000000" stroke="none" 
	d="
M99.000122,155.967026 
	C92.669296,155.971786 86.836929,156.062775 81.007927,155.960999 
	C72.417084,155.811005 67.227707,150.743484 67.087929,142.298233 
	C66.963882,134.803513 67.047569,127.305214 67.066200,119.808556 
	C67.067368,119.340912 67.300682,118.873840 67.591629,117.788704 
	C76.437843,117.788704 85.372200,117.849869 94.305138,117.763596 
	C98.954422,117.718689 103.693962,117.934219 108.231140,117.125511 
	C120.334938,114.968155 128.434341,105.329117 128.902267,93.000961 
	C129.096985,87.870972 128.934616,82.727425 128.934616,77.169495 
	C138.194427,77.169495 146.969086,76.638039 155.638138,77.365211 
	C160.993851,77.814461 164.800049,83.421959 164.864151,89.529549 
	C165.052979,107.519974 165.097534,125.514519 164.922119,143.504761 
	C164.858246,150.055450 159.881210,154.998398 153.342957,155.941788 
	C152.059967,156.126923 150.764801,156.227722 148.687515,156.452744 
	C148.687515,162.658859 148.687515,168.697250 148.687515,174.735626 
	C148.232697,174.960114 147.777878,175.184601 147.323059,175.409088 
	C145.215317,173.730576 142.701096,172.375259 141.066971,170.320129 
	C131.742752,158.593643 120.025528,153.251343 104.990211,155.924667 
	C103.213806,156.240509 101.332664,155.967239 99.000122,155.967026 
z"/>
<path fill="#3E4649" opacity="1.000000" stroke="none" 
	d="
M370.145416,149.190491 
	C345.176666,156.978806 321.504974,148.415253 310.725342,127.960548 
	C300.328186,108.231606 305.021729,81.555145 321.348663,67.581474 
	C337.494995,53.762379 364.281433,52.787098 381.255035,65.800949 
	C396.618866,77.580566 401.504547,93.783958 399.014832,112.364510 
	C396.658752,129.947739 387.140045,142.360901 370.145416,149.190491 
M339.607117,79.943443 
	C328.927368,88.148903 325.009247,100.743896 328.932281,114.258057 
	C332.268707,125.751266 341.251251,132.567383 352.825104,132.388306 
	C364.107880,132.213760 373.102722,125.253006 375.786530,113.821030 
	C376.868713,109.211395 377.265656,104.207047 376.782623,99.504753 
	C374.823303,80.430107 357.175140,70.946205 339.607117,79.943443 
z"/>
<path fill="#3F4749" opacity="1.000000" stroke="none" 
	d="
M632.173340,87.779587 
	C628.427124,78.155487 624.819092,68.893860 621.004822,59.102867 
	C628.514648,59.102867 635.333069,58.876667 642.112976,59.287193 
	C643.527039,59.372814 645.433655,61.575733 646.038635,63.202538 
	C652.822205,81.444817 659.392700,99.766350 666.030212,118.062996 
	C666.568237,119.546104 667.178406,121.003029 668.187439,123.573631 
	C671.042236,115.504616 673.549133,108.554504 675.961304,101.571671 
	C680.415100,88.678452 684.900940,75.794907 689.169556,62.840168 
	C690.165039,59.818867 691.586243,58.666840 694.829102,58.811440 
	C700.950378,59.084396 707.092529,58.890270 713.970947,58.890270 
	C711.511230,65.362953 709.314575,71.240524 707.048157,77.091095 
	C696.652100,103.927467 686.286133,130.775742 675.777649,157.568069 
	C674.084045,161.885925 672.073486,166.162384 669.608765,170.080032 
	C660.501892,184.554901 640.971619,190.282379 625.861084,182.845627 
	C627.272400,176.869354 628.706543,170.796326 630.171936,164.591095 
	C632.393555,165.236435 634.114685,165.833252 635.880493,166.232712 
	C643.875732,168.041458 648.991333,165.528641 652.711365,158.285233 
	C655.639954,152.582809 656.492554,147.402969 653.623535,140.892151 
	C645.979980,123.546562 639.346558,105.755821 632.173340,87.779587 
z"/>
<path fill="#3E4648" opacity="1.000000" stroke="none" 
	d="
M610.370850,24.883053 
	C610.370850,66.380203 610.370850,107.877357 610.370850,149.982391 
	C603.509705,149.982391 597.092163,149.982391 590.175903,149.423935 
	C589.263306,148.500336 588.849304,148.135193 588.435364,147.770035 
	C588.342041,141.957672 588.172119,136.145370 588.167908,130.332932 
	C588.143188,96.233620 588.157043,62.134270 588.530396,27.488886 
	C588.725647,26.592299 588.548401,26.241756 588.371155,25.891216 
	C588.321960,25.693415 588.272766,25.495613 588.727966,24.921333 
	C596.278503,24.657585 603.324646,24.770319 610.370850,24.883053 
z"/>
<path fill="#3E4547" opacity="1.000000" stroke="none" 
	d="
M457.986450,78.256042 
	C454.788818,79.597931 451.333557,80.532829 448.444366,82.361900 
	C441.239716,86.922928 437.245209,93.436562 437.320831,102.278069 
	C437.440369,116.253632 437.335938,130.231110 437.326630,144.207779 
	C437.325439,145.978928 437.326477,147.750076 437.326477,149.762726 
	C429.746185,149.762726 422.809692,149.762726 415.458191,149.762726 
	C415.458191,119.796944 415.458191,89.783440 415.458191,59.340942 
	C421.848480,59.340942 428.400818,59.340942 435.607208,59.340942 
	C435.927155,64.181419 436.260040,69.217392 436.689575,75.715797 
	C442.259430,66.916672 447.909485,60.130676 457.787079,58.247154 
	C458.862701,58.238762 459.438507,57.991302 460.014282,57.743835 
	C462.558868,57.480412 465.103424,57.216988 467.987549,56.918411 
	C467.987549,64.191895 467.987549,70.816925 467.987549,78.127991 
	C465.348450,78.127991 463.110718,78.127991 460.301178,77.832870 
	C459.148407,77.777176 458.567444,78.016609 457.986450,78.256042 
z"/>
<path fill="#485052" opacity="1.000000" stroke="none" 
	d="
M566.171021,144.628784 
	C565.694397,143.122879 565.066589,141.235291 565.060974,139.345871 
	C564.993225,116.406418 565.046448,93.466652 565.004822,70.527084 
	C564.983521,58.781338 566.354126,60.101181 554.756958,60.015778 
	C553.101379,60.003586 551.446655,59.885975 549.463074,59.589794 
	C554.727966,59.362431 560.321228,59.362431 566.309021,59.362431 
	C566.309021,87.597481 566.309021,115.921875 566.171021,144.628784 
z"/>
<path fill="#EEEFEC" opacity="1.000000" stroke="none" 
	d="
M610.535645,24.588829 
	C603.324646,24.770319 596.278503,24.657585 588.714233,24.615910 
	C588.649170,24.138067 589.097778,23.115631 589.555908,23.111359 
	C596.342468,23.048058 603.130554,23.106955 609.917175,23.207266 
	C610.183594,23.211206 610.439575,23.916243 610.535645,24.588829 
z"/>
<path fill="#414A4D" opacity="1.000000" stroke="none" 
	d="
M458.236847,78.363495 
	C458.567444,78.016609 459.148407,77.777176 459.855194,77.743484 
	C459.483063,78.123138 458.985168,78.297043 458.236847,78.363495 
z"/>
<path fill="#414A4D" opacity="1.000000" stroke="none" 
	d="
M459.764191,57.627800 
	C459.438507,57.991302 458.862701,58.238762 458.158997,58.284821 
	C458.525421,57.892868 459.019745,57.702312 459.764191,57.627800 
z"/>
<path fill="#333D3C" opacity="1.000000" stroke="none" 
	d="
M588.297485,26.201628 
	C588.548401,26.241756 588.725647,26.592299 588.630981,27.039228 
	C588.313904,26.927759 588.268860,26.719900 588.297485,26.201628 
z"/>
<path fill="#333D3C" opacity="1.000000" stroke="none" 
	d="
M588.402466,148.255035 
	C588.849304,148.135193 589.263306,148.500336 589.788147,149.271545 
	C589.389221,149.365082 588.879456,149.052567 588.402466,148.255035 
z"/>
<path fill="#FCFCFC" opacity="1.000000" stroke="none" 
	d="
M525.897705,76.813820 
	C538.450073,80.400497 544.010193,87.545723 544.262756,100.012177 
	C544.303162,102.008041 544.294556,104.006615 544.244568,106.002327 
	C543.900513,119.735512 536.140442,128.384201 523.040283,129.658585 
	C510.350464,130.893051 500.224457,123.368973 497.402161,110.278168 
	C495.904907,103.333458 496.051178,96.361084 499.011658,89.714371 
	C503.509674,79.615509 513.152893,74.919350 525.897705,76.813820 
z"/>
<path fill="#FCFCFC" opacity="1.000000" stroke="none" 
	d="
M339.923340,79.751678 
	C357.175140,70.946205 374.823303,80.430107 376.782623,99.504753 
	C377.265656,104.207047 376.868713,109.211395 375.786530,113.821030 
	C373.102722,125.253006 364.107880,132.213760 352.825104,132.388306 
	C341.251251,132.567383 332.268707,125.751266 328.932281,114.258057 
	C325.009247,100.743896 328.927368,88.148903 339.923340,79.751678 
z"/>
</svg>