<svg version="1.1" id="Layer_1" xmlns="http://www.w3.org/2000/svg" xmlns:xlink="http://www.w3.org/1999/xlink" x="0px" y="0px"
	 width="100%" viewBox="0 0 722 691" enable-background="new 0 0 722 691" xml:space="preserve">
<path fill="#FAF3E5" opacity="1.000000" stroke="none" 
	d="
M723.000000,272.000000 
	C723.000000,412.333344 723.000000,552.166687 723.000000,692.000000 
	C482.333344,692.000000 241.666672,692.000000 1.000000,692.000000 
	C1.000000,461.666656 1.000000,231.333328 1.000000,1.000000 
	C241.666672,1.000000 482.333344,1.000000 723.000000,1.000000 
	C723.000000,91.166664 723.000000,181.333328 723.000000,272.000000 
M58.378334,571.376953 
	C57.929043,571.912415 57.479752,572.447937 56.802311,572.270447 
	C53.958607,569.545532 53.131432,571.221375 53.188007,574.057190 
	C53.351955,582.274963 53.640980,590.490173 53.413322,599.064514 
	C53.202251,599.395569 52.991184,599.726562 52.254578,599.393860 
	C52.136337,598.251648 51.915848,597.109314 51.917339,595.967224 
	C51.924252,590.673767 52.089516,585.377869 51.952320,580.089172 
	C51.926849,579.107300 50.772129,578.154846 50.138588,577.188782 
	C49.476971,578.111450 48.514637,578.951111 48.231251,579.978088 
	C47.891083,581.210999 48.128693,582.603516 48.117432,583.926880 
	C48.030216,594.178955 47.943306,604.431030 47.329620,615.109436 
	C47.283089,615.957397 47.236557,616.805359 47.019264,618.459351 
	C42.495708,636.160461 38.322651,653.923950 36.984524,672.402649 
	C253.888626,672.402649 470.342529,672.402649 688.175110,672.402649 
	C685.017700,655.910889 682.472900,639.982971 678.837341,624.307922 
	C674.456482,605.419128 667.386169,587.472595 657.400085,570.732910 
	C644.637085,549.338257 626.413208,534.428345 603.766174,524.049927 
	C603.922974,523.065125 603.970642,522.047974 604.252319,521.100281 
	C614.633118,486.176208 618.431458,450.253479 618.478455,414.076233 
	C618.506409,392.525055 616.501953,370.845459 613.703674,349.446899 
	C609.831482,319.836395 600.842468,291.587769 585.322510,265.821533 
	C565.692505,233.231812 538.258789,210.530273 500.422699,200.118439 
	C499.963470,192.012589 499.977051,183.846176 498.948364,175.813248 
	C496.680878,158.106628 492.344971,141.119934 479.637238,127.471397 
	C478.317963,126.054489 477.843170,123.609970 477.509857,121.555717 
	C475.388641,108.482643 470.280487,96.674965 462.729431,85.872223 
	C461.812927,84.561073 460.701996,83.385872 459.681152,82.147667 
	C459.157654,83.647331 459.467896,84.580414 459.652863,85.537704 
	C459.867859,86.650261 459.973083,87.784019 460.234955,89.710831 
	C443.355377,72.860893 423.826508,62.174248 400.334717,55.662910 
	C402.030762,57.511967 402.792694,58.294437 403.497925,59.125065 
	C404.198853,59.950653 404.842834,60.824635 406.256561,62.626743 
	C371.397308,56.940899 337.463135,48.723370 304.379852,65.118828 
	C305.350708,65.746208 306.323425,65.854721 307.283417,66.032043 
	C308.147308,66.191620 308.997253,66.426666 309.853363,66.628426 
	C286.513947,72.958221 265.627441,82.535866 251.195862,103.667007 
	C252.835022,103.928062 253.959717,104.107178 255.968445,104.427086 
	C253.329941,107.470261 251.199295,109.949532 249.045349,112.408394 
	C237.173264,125.961021 227.782211,141.006821 226.451508,159.312256 
	C225.029465,178.873871 224.130371,198.581512 224.865021,218.155518 
	C225.390732,232.162048 228.984970,246.053406 231.164261,260.737762 
	C231.458740,262.194336 231.753220,263.650940 231.376724,264.892670 
	C229.248215,263.940399 227.119720,262.988098 224.402649,261.627716 
	C216.825516,261.113037 212.743515,264.344299 213.138199,272.335297 
	C213.608047,281.848175 215.373978,291.297028 216.026627,301.267944 
	C210.329620,305.855621 204.661530,310.479767 198.930618,315.024689 
	C173.568939,335.137939 149.500366,356.503357 130.409103,382.987610 
	C105.289009,417.835297 95.189560,456.033142 103.960236,498.526581 
	C106.072853,508.762085 108.952934,518.839233 110.921188,529.467102 
	C94.659157,537.526672 81.613274,549.262329 70.575752,564.191833 
	C66.935570,563.462769 63.295380,562.733704 59.201698,561.913818 
	C59.035458,565.471130 58.905701,568.247742 58.378334,571.376953 
z"/>
<path fill="#282726" opacity="1.000000" stroke="none" 
	d="
M71.304703,564.126770 
	C81.613274,549.262329 94.659157,537.526672 111.514954,529.180054 
	C112.701920,528.592834 113.275833,528.244141 113.891106,527.999390 
	C144.021057,516.013611 174.067856,503.812073 204.317886,492.137238 
	C224.786789,484.237366 245.542145,477.079834 266.197052,470.088135 
	C266.069672,475.075989 266.301971,479.619293 265.692902,484.046906 
	C262.968018,503.855377 271.220917,519.496582 284.507355,532.920471 
	C324.233582,573.057861 399.026154,573.108032 439.224976,533.193054 
	C452.586029,519.926392 460.644257,504.522583 458.476196,484.955811 
	C457.928772,480.015320 458.233978,474.980286 458.537170,469.925720 
	C460.991302,470.467651 463.109802,470.931091 465.112000,471.698242 
	C511.287262,489.391144 557.449951,507.117157 603.614929,524.836975 
	C626.413208,534.428345 644.637085,549.338257 657.400085,570.732910 
	C667.386169,587.472595 674.456482,605.419128 678.837341,624.307922 
	C682.472900,639.982971 685.017700,655.910889 688.175110,672.402649 
	C470.342529,672.402649 253.888626,672.402649 36.984524,672.402649 
	C38.322651,653.923950 42.495708,636.160461 47.383865,618.345093 
	C47.956223,621.466125 49.381878,623.025330 52.912594,623.332642 
	C62.639095,624.179260 72.328758,625.449097 82.314560,626.733704 
	C83.856201,627.249573 85.116280,627.583313 86.177742,627.864441 
	C86.992027,625.791199 87.550819,624.368469 88.414566,623.095459 
	C89.498726,623.729980 90.277924,624.214783 91.746887,625.128845 
	C91.746887,623.311646 91.745178,622.208130 91.747147,621.104614 
	C91.770630,607.984009 91.845367,594.862976 91.741829,581.743408 
	C91.731216,580.398499 90.938042,578.816345 90.025078,577.762756 
	C85.156860,572.144348 79.313553,567.909851 71.937469,565.581421 
	C71.655487,564.896240 71.480095,564.511475 71.304703,564.126770 
M602.633911,652.209534 
	C604.512695,654.421997 606.391541,656.634460 608.270325,658.846863 
	C608.719849,658.512024 609.169373,658.177124 609.618835,657.842285 
	C608.485962,655.819946 607.353088,653.797607 606.220215,651.775330 
	C606.667786,651.822266 607.115295,651.869202 607.562866,651.916138 
	C607.965149,648.802856 609.761963,644.844360 608.489990,642.745972 
	C605.512512,637.833923 599.992798,640.247681 595.021301,639.974182 
	C595.021301,645.595337 594.964050,650.851257 595.091309,656.102661 
	C595.107788,656.784485 596.075806,657.443237 596.603088,658.112671 
	C597.104126,657.418701 597.806030,656.788940 598.054138,656.013977 
	C598.348022,655.095825 598.250671,654.052551 598.989685,653.084656 
	C599.978760,652.768921 600.967896,652.453186 602.633911,652.209534 
M125.014664,608.730469 
	C124.969177,608.410889 124.923691,608.091309 125.536713,607.252136 
	C125.802429,605.487305 126.287460,603.723755 126.297974,601.957458 
	C126.362343,591.144226 126.318893,580.330444 126.312073,569.516846 
	C126.310539,567.087280 126.311844,564.657715 126.311844,561.771240 
	C114.676491,563.598145 104.905945,567.453857 97.597481,575.851257 
	C95.629318,578.112610 94.237961,581.582581 94.079361,584.577087 
	C93.640160,592.869812 93.998924,601.204468 94.026062,609.522522 
	C94.042595,614.589783 94.029114,619.657166 94.029114,624.943115 
	C96.416534,624.079041 98.141228,623.454834 99.991440,623.614380 
	C101.099869,624.356018 102.208305,625.097595 103.964149,626.237427 
	C108.641228,625.815186 113.321999,625.429749 117.994492,624.961670 
	C124.560211,624.303833 131.119766,623.584656 137.506699,622.910278 
	C139.230026,610.962524 138.403534,579.887268 135.687088,576.392578 
	C135.322662,578.773376 134.886627,580.371704 134.863770,581.975952 
	C134.723801,591.798706 134.787170,601.626099 134.485275,611.442810 
	C134.438324,612.969727 132.865829,614.449829 131.996567,615.241394 
	C131.961914,614.769104 131.927261,614.296753 132.123810,612.932556 
	C132.123810,598.988770 132.123810,585.044922 132.123810,571.101135 
	C131.427109,571.009216 130.730392,570.917297 130.033691,570.825378 
	C129.633362,572.266235 128.900909,573.703674 128.886307,575.148438 
	C128.787201,584.947571 128.762436,594.749329 128.891113,604.547852 
	C128.928757,607.413269 128.463501,609.491882 125.014664,608.730469 
M585.872559,657.552673 
	C590.684204,654.320679 592.292664,650.733154 590.886597,646.369202 
	C589.560059,642.252319 585.344177,639.166504 581.052185,639.397949 
	C576.265076,639.656128 573.083496,642.079224 571.466370,646.695618 
	C569.479797,652.367004 575.931641,661.441040 585.872559,657.552673 
M626.230347,640.065857 
	C625.578186,639.938660 624.931396,639.758789 624.273071,639.692688 
	C619.458313,639.209045 615.699341,640.970154 613.631836,645.382446 
	C611.939209,648.994446 612.378235,652.559143 615.358215,655.466064 
	C618.867432,658.889221 623.093079,659.400574 627.313354,657.351379 
	C628.609131,656.722168 629.527893,654.482910 629.804138,652.843506 
	C630.037354,651.458984 629.091370,649.875793 628.783936,648.791687 
	C626.356934,651.403809 624.877686,654.253113 622.756165,654.861084 
	C621.200745,655.306824 618.000916,653.254639 617.025818,651.490967 
	C616.200928,649.998962 616.788452,646.337158 618.055420,645.401245 
	C619.983398,643.976807 623.027466,644.015259 625.619873,643.559082 
	C626.833313,643.345520 628.098816,643.428101 629.340759,643.376465 
	C628.533569,642.357239 627.726318,641.338074 626.230347,640.065857 
M560.172852,639.671265 
	C553.743103,642.109497 551.109253,646.860291 553.182068,652.280762 
	C555.117371,657.341614 560.864380,660.021484 565.846863,657.838623 
	C567.118591,657.281372 567.832825,655.451660 568.803162,654.206543 
	C567.560791,654.324585 566.281067,654.690491 565.083801,654.509583 
	C562.513123,654.121399 559.353271,654.166443 557.648438,652.660217 
	C556.386292,651.545105 556.207275,647.902466 557.018616,646.021057 
	C558.564697,642.435303 561.838440,641.955261 565.442383,643.525269 
	C566.401123,643.942932 567.641052,643.715210 568.751892,643.783752 
	C568.078735,642.686340 567.645813,641.026611 566.680115,640.614197 
	C564.929321,639.866394 562.861267,639.861694 560.172852,639.671265 
M655.731934,645.465088 
	C655.136230,646.212402 654.540588,646.959778 653.873352,647.796875 
	C651.373230,644.738220 649.075317,641.926941 646.203735,638.413879 
	C645.746643,640.251465 645.530457,640.602600 645.619629,640.837830 
	C647.690613,646.298889 652.811279,650.541809 652.124573,657.148987 
	C652.093384,657.449768 653.408875,658.274292 653.908508,658.142090 
	C654.442444,658.000732 654.887390,657.063354 655.137146,656.387024 
	C656.254333,653.361755 657.143005,650.244324 658.396973,647.279724 
	C659.432007,644.832581 660.863464,642.552979 662.119263,640.199158 
	C661.567200,639.828918 661.015137,639.458679 660.463013,639.088440 
	C659.014160,640.991150 657.565308,642.893799 655.731934,645.465088 
M643.172852,658.263367 
	C644.461304,657.680054 645.749695,657.096741 647.038086,656.513367 
	C645.814758,656.012390 644.630615,655.305359 643.358032,655.062866 
	C641.785706,654.763184 640.139771,654.849609 637.981873,654.742065 
	C637.981873,650.343933 638.051514,646.233093 637.919617,642.128845 
	C637.895020,641.363098 637.061951,640.623291 636.601929,639.871582 
	C635.936340,640.410339 634.706726,640.934509 634.692383,641.490173 
	C634.548767,647.049561 634.605164,652.614075 634.605164,658.266968 
	C637.671082,658.266968 639.988586,658.266968 643.172852,658.263367 
z"/>
<path fill="#F67D62" opacity="1.000000" stroke="none" 
	d="
M603.690552,524.443481 
	C557.449951,507.117157 511.287262,489.391144 465.112000,471.698242 
	C463.109802,470.931091 460.991302,470.467651 458.484558,469.467682 
	C458.039032,464.240448 458.176453,459.402740 457.986420,454.577942 
	C457.846039,451.012451 457.279022,447.463776 456.992004,443.578491 
	C472.195190,422.298035 477.859924,398.115112 480.970123,373.089050 
	C482.277588,362.568329 481.573181,351.411682 491.138336,343.775391 
	C491.386078,343.577606 491.530884,343.239105 491.695068,342.950012 
	C500.013062,328.306366 504.839569,312.444214 508.237671,295.778107 
	C508.885162,292.268066 509.593292,289.017456 509.784485,285.736694 
	C510.109406,280.160767 510.907471,274.438782 510.043457,269.011108 
	C508.957611,262.190308 503.831207,259.878967 497.298340,262.047577 
	C495.688263,262.582031 494.101562,263.186890 491.724518,264.038788 
	C498.339813,242.829636 500.530914,221.887375 500.971558,200.704330 
	C538.258789,210.530273 565.692505,233.231812 585.322510,265.821533 
	C600.842468,291.587769 609.831482,319.836395 613.703674,349.446899 
	C616.501953,370.845459 618.506409,392.525055 618.478455,414.076233 
	C618.431458,450.253479 614.633118,486.176208 604.252319,521.100281 
	C603.970642,522.047974 603.922974,523.065125 603.690552,524.443481 
z"/>
<path fill="#323130" opacity="1.000000" stroke="none" 
	d="
M500.697144,200.411377 
	C500.530914,221.887375 498.339813,242.829636 491.724518,264.038788 
	C494.101562,263.186890 495.688263,262.582031 497.298340,262.047577 
	C503.831207,259.878967 508.957611,262.190308 510.043457,269.011108 
	C510.907471,274.438782 510.109406,280.160767 509.784485,285.736694 
	C509.593292,289.017456 508.885162,292.268066 507.907227,295.771179 
	C506.964233,296.006439 506.523590,296.002777 506.055756,295.586426 
	C506.673248,287.457764 507.675659,279.750000 507.854095,272.023224 
	C508.008514,265.336365 503.115387,262.809601 497.016785,265.490234 
	C490.491516,268.358398 488.627838,273.397125 489.241577,280.390320 
	C489.089172,283.225189 489.051544,285.624817 488.921814,288.394012 
	C488.680847,290.521973 488.531952,292.280334 488.254883,294.466064 
	C487.697144,299.594696 487.267609,304.295959 486.484894,308.990845 
	C484.199280,308.321930 482.266876,307.659424 480.288147,306.587555 
	C483.170197,284.070251 484.488342,262.105408 475.940979,240.707794 
	C472.111694,231.121506 471.280609,221.021973 471.972748,210.745560 
	C472.408875,204.270416 472.852417,197.762772 472.673615,191.286789 
	C472.386139,180.875168 471.093567,170.563583 463.992920,162.198517 
	C460.930206,158.590424 457.658081,154.775940 451.516785,155.754242 
	C439.119934,157.205444 427.981628,154.327225 417.054779,149.808868 
	C408.229523,146.159561 399.081360,144.697739 389.790619,147.999588 
	C371.190277,154.609970 352.594940,154.212219 333.943848,148.339432 
	C326.909424,146.124451 319.890839,146.043808 312.845306,148.339249 
	C303.143799,151.500000 293.313843,151.880920 283.279755,149.998978 
	C280.291748,149.438553 277.103027,149.947983 273.630035,149.919830 
	C266.334198,151.326340 262.146545,156.251907 258.598450,161.765976 
	C252.254074,171.625793 250.361237,182.629074 250.890854,194.159332 
	C251.612488,209.869629 253.477997,225.643814 247.945145,241.328430 
	C246.542877,246.441986 245.329407,251.222870 243.963440,256.310303 
	C243.341705,258.116913 242.872467,259.616974 241.974426,261.049255 
	C238.100464,260.653015 234.655273,260.324585 231.210098,259.996155 
	C228.984970,246.053406 225.390732,232.162048 224.865021,218.155518 
	C224.130371,198.581512 225.029465,178.873871 226.451508,159.312256 
	C227.782211,141.006821 237.173264,125.961021 249.045349,112.408394 
	C251.199295,109.949532 253.329941,107.470261 255.968445,104.427086 
	C253.959717,104.107178 252.835022,103.928062 251.195862,103.667007 
	C265.627441,82.535866 286.513947,72.958221 309.853363,66.628426 
	C308.997253,66.426666 308.147308,66.191620 307.283417,66.032043 
	C306.323425,65.854721 305.350708,65.746208 304.379852,65.118828 
	C337.463135,48.723370 371.397308,56.940899 406.256561,62.626743 
	C404.842834,60.824635 404.198853,59.950653 403.497925,59.125065 
	C402.792694,58.294437 402.030762,57.511967 400.334717,55.662910 
	C423.826508,62.174248 443.355377,72.860893 460.234955,89.710831 
	C459.973083,87.784019 459.867859,86.650261 459.652863,85.537704 
	C459.467896,84.580414 459.157654,83.647331 459.681152,82.147667 
	C460.701996,83.385872 461.812927,84.561073 462.729431,85.872223 
	C470.280487,96.674965 475.388641,108.482643 477.509857,121.555717 
	C477.843170,123.609970 478.317963,126.054489 479.637238,127.471397 
	C492.344971,141.119934 496.680878,158.106628 498.948364,175.813248 
	C499.977051,183.846176 499.963470,192.012589 500.697144,200.411377 
M306.749268,103.761658 
	C325.053711,105.640556 339.584106,114.801880 352.069763,127.908638 
	C344.963623,106.148804 300.559631,90.166847 285.647247,103.465118 
	C292.438629,103.465118 299.166656,103.465118 306.749268,103.761658 
M366.165436,122.318665 
	C367.456879,123.489433 368.748322,124.660210 370.039764,125.830978 
	C365.462250,110.260582 341.272034,94.484848 322.363647,94.226265 
	C338.749603,100.437706 353.910858,108.549706 366.165436,122.318665 
M361.553986,88.008392 
	C363.102478,89.242256 364.874603,90.279114 366.163239,91.741920 
	C374.556885,101.270210 380.825378,112.097099 385.476562,123.890877 
	C386.120911,125.524696 386.977264,127.074898 388.333130,129.916336 
	C389.959869,112.199318 371.730194,88.047806 358.951172,84.543427 
	C359.833313,85.799858 360.442902,86.668106 361.553986,88.008392 
M428.022797,107.577721 
	C424.542328,97.398056 414.176453,85.460770 406.238007,83.581100 
	C420.054138,96.634018 427.087555,111.993454 428.280518,131.094681 
	C432.878418,122.582947 430.488190,115.463875 428.022797,107.577721 
M299.477722,116.001366 
	C297.193024,115.814735 294.908325,115.628105 292.623627,115.441475 
	C292.499634,115.889671 292.375641,116.337868 292.251678,116.786072 
	C305.330902,120.171074 317.862640,124.689766 328.740631,134.567368 
	C326.429352,126.021606 314.818787,118.858543 299.477722,116.001366 
M273.307495,125.392853 
	C272.355103,125.882408 271.402740,126.371971 270.450348,126.861526 
	C284.879456,125.003746 297.978607,127.837875 310.523254,134.567810 
	C307.541138,128.749710 302.325531,125.867134 296.725922,125.229858 
	C289.266113,124.380890 281.627777,125.100975 273.307495,125.392853 
M403.263184,117.440407 
	C403.871246,120.628113 404.479309,123.815826 405.259735,127.907272 
	C410.648315,118.028175 400.878723,96.954758 390.861176,92.712990 
	C394.855408,100.564369 398.948792,108.610672 403.263184,117.440407 
M450.223297,132.518448 
	C455.500397,121.754646 453.265808,111.564346 447.650940,101.568810 
	C450.412781,113.431778 449.874939,125.073494 445.081329,136.475021 
	C445.500427,136.635880 445.919525,136.796738 446.338654,136.957581 
	C447.524902,135.701599 448.711151,134.445618 450.223297,132.518448 
z"/>
<path fill="#F77F64" opacity="1.000000" stroke="none" 
	d="
M266.169373,469.590271 
	C245.542145,477.079834 224.786789,484.237366 204.317886,492.137238 
	C174.067856,503.812073 144.021057,516.013611 113.891106,527.999390 
	C113.275833,528.244141 112.701920,528.592834 111.794388,528.941162 
	C108.952934,518.839233 106.072853,508.762085 103.960236,498.526581 
	C95.189560,456.033142 105.289009,417.835297 130.409103,382.987610 
	C149.500366,356.503357 173.568939,335.137939 198.930618,315.024689 
	C204.661530,310.479767 210.329620,305.855621 216.465820,301.343750 
	C220.658646,312.874176 224.167511,324.418396 228.306061,335.732239 
	C229.653381,339.415466 232.644608,342.497406 234.935440,346.192383 
	C236.950256,348.426453 238.913620,350.322449 240.885223,352.649719 
	C244.119858,385.390961 247.966507,417.519135 267.575806,445.286987 
	C267.198242,447.741547 267.048004,449.860687 266.949768,451.982239 
	C266.678009,457.851044 266.427979,463.720856 266.169373,469.590271 
z"/>
<path fill="#323130" opacity="1.000000" stroke="none" 
	d="
M240.876984,352.218445 
	C238.913620,350.322449 236.950256,348.426453 235.307541,345.935516 
	C235.844604,345.141846 236.061035,344.943054 236.555450,344.910217 
	C237.714035,345.831573 238.594681,346.586945 240.270096,348.024078 
	C239.474808,341.591675 238.817215,336.273102 238.207535,330.499725 
	C237.922729,324.714600 237.590012,319.384277 237.541855,314.208832 
	C240.135010,315.705536 242.333527,316.783478 242.508133,311.823730 
	C240.524063,312.247528 238.859177,312.603180 237.101440,312.538666 
	C236.618805,308.404327 236.229004,304.690094 235.903824,300.526062 
	C235.477737,293.688812 234.987030,287.301331 234.571136,280.515869 
	C235.683929,272.271179 231.744614,267.506683 224.979828,264.086426 
	C224.988617,263.129486 224.989914,262.582672 224.991211,262.035828 
	C227.119720,262.988098 229.248215,263.940399 231.876068,265.298737 
	C235.233765,266.803467 238.092133,267.902130 241.014359,269.458679 
	C241.630920,278.176727 242.144699,286.439667 242.747269,294.696167 
	C243.347595,302.922089 244.037003,311.141541 244.267670,319.248383 
	C240.490280,319.155212 239.813950,320.843231 242.052505,324.275726 
	C242.915955,322.677582 243.779419,321.079437 244.901337,319.835876 
	C247.022415,330.792694 248.885040,341.394928 250.377014,351.998505 
	C246.963226,352.072693 243.920105,352.145569 240.876984,352.218445 
z"/>
<path fill="#4A3930" opacity="1.000000" stroke="none" 
	d="
M88.109604,622.945740 
	C87.550819,624.368469 86.992027,625.791199 86.177742,627.864441 
	C85.116280,627.583313 83.856201,627.249573 82.203079,626.364624 
	C71.916687,622.503052 62.023346,619.192627 51.973457,615.447754 
	C52.137974,610.028076 52.459049,605.042847 52.780117,600.057617 
	C52.991184,599.726562 53.202251,599.395569 53.696693,599.369385 
	C54.013660,603.160706 53.851734,606.665833 54.180508,610.124268 
	C54.305790,611.442139 55.285870,613.417542 56.338211,613.790649 
	C64.049850,616.524780 71.878761,618.928162 79.670677,621.435852 
	C79.247894,619.893616 78.366508,618.587830 77.139877,617.988586 
	C71.635948,615.299500 65.997101,612.886414 60.494270,610.195190 
	C59.203285,609.563843 57.316658,608.253479 57.298733,607.227600 
	C57.192074,601.123901 57.553665,595.012024 57.901886,588.633179 
	C58.294716,588.044739 58.543640,587.725952 59.071789,587.771484 
	C59.435741,592.946289 59.756065,597.768188 59.525963,602.563660 
	C59.360580,606.010376 60.594357,607.600281 63.872440,608.597900 
	C73.079269,611.399780 81.120071,616.321777 88.109604,622.945740 
z"/>
<path fill="#343332" opacity="1.000000" stroke="none" 
	d="
M224.696930,261.831787 
	C224.989914,262.582672 224.988617,263.129486 224.582428,264.064148 
	C218.560226,264.368866 216.512146,265.975372 215.891464,271.305878 
	C215.624146,273.601685 215.588409,275.963501 215.779953,278.267670 
	C217.746124,301.920471 224.211655,324.199249 236.277481,344.744293 
	C236.061035,344.943054 235.844604,345.141846 235.256073,345.597473 
	C232.644608,342.497406 229.653381,339.415466 228.306061,335.732239 
	C224.167511,324.418396 220.658646,312.874176 216.741699,301.096558 
	C215.373978,291.297028 213.608047,281.848175 213.138199,272.335297 
	C212.743515,264.344299 216.825516,261.113037 224.696930,261.831787 
z"/>
<path fill="#EA826A" opacity="1.000000" stroke="none" 
	d="
M57.757980,588.902893 
	C57.553665,595.012024 57.192074,601.123901 57.298733,607.227600 
	C57.316658,608.253479 59.203285,609.563843 60.494270,610.195190 
	C65.997101,612.886414 71.635948,615.299500 77.139877,617.988586 
	C78.366508,618.587830 79.247894,619.893616 79.670677,621.435852 
	C71.878761,618.928162 64.049850,616.524780 56.338211,613.790649 
	C55.285870,613.417542 54.305790,611.442139 54.180508,610.124268 
	C53.851734,606.665833 54.013660,603.160706 53.930492,599.190308 
	C53.640980,590.490173 53.351955,582.274963 53.188007,574.057190 
	C53.131432,571.221375 53.958607,569.545532 56.856487,573.091431 
	C57.193104,578.909302 57.475544,583.906067 57.757980,588.902893 
z"/>
<path fill="#D57158" opacity="1.000000" stroke="none" 
	d="
M52.130005,615.882202 
	C62.023346,619.192627 71.916687,622.503052 81.921509,626.182495 
	C72.328758,625.449097 62.639095,624.179260 52.912594,623.332642 
	C49.381878,623.025330 47.956223,621.466125 47.469246,617.942139 
	C47.236557,616.805359 47.283089,615.957397 47.875248,615.075317 
	C49.657249,615.321472 50.893627,615.601868 52.130005,615.882202 
z"/>
<path fill="#F39982" opacity="1.000000" stroke="none" 
	d="
M51.973450,615.447754 
	C50.893627,615.601868 49.657249,615.321472 48.138588,614.862122 
	C47.943306,604.431030 48.030216,594.178955 48.117432,583.926880 
	C48.128693,582.603516 47.891083,581.210999 48.231251,579.978088 
	C48.514637,578.951111 49.476971,578.111450 50.138588,577.188782 
	C50.772129,578.154846 51.926849,579.107300 51.952320,580.089172 
	C52.089516,585.377869 51.924252,590.673767 51.917339,595.967224 
	C51.915848,597.109314 52.136337,598.251648 52.517349,599.725708 
	C52.459049,605.042847 52.137974,610.028076 51.973450,615.447754 
z"/>
<path fill="#F78C70" opacity="1.000000" stroke="none" 
	d="
M70.940231,564.159302 
	C71.480095,564.511475 71.655487,564.896240 71.910393,565.970825 
	C67.717857,568.784973 63.445808,570.909180 59.103382,572.698853 
	C58.947315,571.917664 58.861626,571.471069 58.775940,571.024414 
	C58.905701,568.247742 59.035458,565.471130 59.201698,561.913818 
	C63.295380,562.733704 66.935570,563.462769 70.940231,564.159302 
z"/>
<path fill="#343332" opacity="1.000000" stroke="none" 
	d="
M240.950470,269.000793 
	C238.092133,267.902130 235.233765,266.803467 232.211548,265.406158 
	C231.753220,263.650940 231.458740,262.194336 231.187180,260.366943 
	C234.655273,260.324585 238.100464,260.653015 241.947540,261.455688 
	C241.883118,264.286865 241.416794,266.643829 240.950470,269.000793 
z"/>
<path fill="#F9E4D1" opacity="1.000000" stroke="none" 
	d="
M58.577137,571.200684 
	C58.861626,571.471069 58.947315,571.917664 59.045879,573.157532 
	C58.970024,578.436218 58.881290,582.921692 58.792557,587.407166 
	C58.543640,587.725952 58.294716,588.044739 57.901890,588.633179 
	C57.475544,583.906067 57.193104,578.909302 56.970558,573.447998 
	C57.479752,572.447937 57.929043,571.912415 58.577137,571.200684 
z"/>
<path fill="#F6B894" opacity="1.000000" stroke="none" 
	d="
M266.197052,470.088104 
	C266.427979,463.720856 266.678009,457.851044 266.949768,451.982239 
	C267.048004,449.860687 267.198242,447.741547 267.814728,445.514221 
	C269.255249,446.822723 270.205780,448.238281 271.205383,449.944214 
	C271.548462,450.476379 271.842468,450.718201 272.348022,451.072235 
	C272.805054,451.413849 272.941803,451.695953 272.962830,452.421967 
	C273.397797,454.394287 273.597321,456.096832 274.318878,457.537994 
	C282.633667,474.145203 292.799133,489.485809 306.648560,502.008789 
	C315.936462,510.407043 326.177307,517.434326 338.694885,520.401611 
	C350.112183,523.108154 361.530762,523.604797 373.221497,522.104492 
	C394.434875,519.382019 411.007416,508.284882 425.438538,493.589966 
	C431.195679,487.727600 436.114899,480.843140 440.429260,473.818237 
	C444.891296,466.552856 448.156403,458.552338 452.060577,450.563538 
	C453.751404,448.138306 455.326752,446.022949 456.902100,443.907593 
	C457.279022,447.463776 457.846039,451.012451 457.986420,454.577942 
	C458.176453,459.402740 458.039032,464.240448 458.094727,469.530640 
	C458.233978,474.980286 457.928772,480.015320 458.476196,484.955811 
	C460.644257,504.522583 452.586029,519.926392 439.224976,533.193054 
	C399.026154,573.108032 324.233582,573.057861 284.507355,532.920471 
	C271.220917,519.496582 262.968018,503.855377 265.692902,484.046906 
	C266.301971,479.619293 266.069672,475.075989 266.197052,470.088104 
z"/>
<path fill="#F27C60" opacity="1.000000" stroke="none" 
	d="
M99.865921,622.830627 
	C98.141228,623.454834 96.416534,624.079041 94.029114,624.943115 
	C94.029114,619.657166 94.042595,614.589783 94.026062,609.522522 
	C93.998924,601.204468 93.640160,592.869812 94.079361,584.577087 
	C94.237961,581.582581 95.629318,578.112610 97.597481,575.851257 
	C104.905945,567.453857 114.676491,563.598145 126.311844,561.771240 
	C126.311844,564.657715 126.310539,567.087280 126.312073,569.516846 
	C126.318893,580.330444 126.362343,591.144226 126.297974,601.957458 
	C126.287460,603.723755 125.802429,605.487305 124.817795,607.501343 
	C119.376587,609.985413 114.654289,612.220215 109.595657,614.599426 
	C106.457123,617.127319 103.654922,619.510742 100.874298,621.927368 
	C100.895859,621.960510 100.959381,621.913269 100.585449,621.796143 
	C100.111305,622.105835 100.011093,622.532532 99.928009,622.917236 
	C99.945137,622.875122 99.865929,622.830627 99.865921,622.830627 
z"/>
<path fill="#F17D61" opacity="1.000000" stroke="none" 
	d="
M59.071785,587.771484 
	C58.881290,582.921692 58.970024,578.436218 59.116257,573.492065 
	C63.445808,570.909180 67.717857,568.784973 72.016983,566.271362 
	C79.313553,567.909851 85.156860,572.144348 90.025078,577.762756 
	C90.938042,578.816345 91.731216,580.398499 91.741829,581.743408 
	C91.845367,594.862976 91.770630,607.984009 91.747147,621.104614 
	C91.745178,622.208130 91.746887,623.311646 91.746887,625.128845 
	C90.277924,624.214783 89.498726,623.729980 88.414566,623.095459 
	C81.120071,616.321777 73.079269,611.399780 63.872440,608.597900 
	C60.594357,607.600281 59.360580,606.010376 59.525963,602.563660 
	C59.756065,597.768188 59.435741,592.946289 59.071785,587.771484 
z"/>
<path fill="#E4785E" opacity="1.000000" stroke="none" 
	d="
M131.998795,615.951538 
	C132.865829,614.449829 134.438324,612.969727 134.485275,611.442810 
	C134.787170,601.626099 134.723801,591.798706 134.863770,581.975952 
	C134.886627,580.371704 135.322662,578.773376 135.687088,576.392578 
	C138.403534,579.887268 139.230026,610.962524 137.506699,622.910278 
	C131.119766,623.584656 124.560211,624.303833 117.994492,624.961670 
	C113.321999,625.429749 108.641228,625.815186 103.866722,625.800293 
	C113.179131,622.226013 122.588959,619.088806 131.998795,615.951538 
z"/>
<path fill="#EA7B60" opacity="1.000000" stroke="none" 
	d="
M125.128433,609.692078 
	C128.463501,609.491882 128.928757,607.413269 128.891113,604.547852 
	C128.762436,594.749329 128.787201,584.947571 128.886307,575.148438 
	C128.900909,573.703674 129.633362,572.266235 130.033691,570.825378 
	C130.730392,570.917297 131.427109,571.009216 132.123810,571.101135 
	C132.123810,585.044922 132.123810,598.988770 131.603058,613.409668 
	C123.787170,616.061523 116.503166,618.274841 109.187309,620.377380 
	C107.772453,620.784058 106.233040,620.757385 104.971207,620.680481 
	C106.844887,619.028259 108.498444,617.626160 110.525391,616.212036 
	C115.641991,614.030701 120.385208,611.861389 125.128433,609.692078 
z"/>
<path fill="#D3C9BB" opacity="1.000000" stroke="none" 
	d="
M585.519775,657.698364 
	C575.931641,661.441040 569.479797,652.367004 571.466370,646.695618 
	C573.083496,642.079224 576.265076,639.656128 581.052185,639.397949 
	C585.344177,639.166504 589.560059,642.252319 590.886597,646.369202 
	C592.292664,650.733154 590.684204,654.320679 585.519775,657.698364 
M585.863098,644.435913 
	C580.694214,641.298523 575.390503,642.554565 575.066223,647.386353 
	C574.910278,649.710571 576.337219,653.260193 578.157227,654.286194 
	C580.014160,655.333130 583.774719,654.776001 585.728149,653.467529 
	C588.729187,651.457336 588.257507,648.043762 585.863098,644.435913 
z"/>
<path fill="#D7CABD" opacity="1.000000" stroke="none" 
	d="
M626.574707,640.192383 
	C627.726318,641.338074 628.533569,642.357239 629.340759,643.376465 
	C628.098816,643.428101 626.833313,643.345520 625.619873,643.559082 
	C623.027466,644.015259 619.983398,643.976807 618.055420,645.401245 
	C616.788452,646.337158 616.200928,649.998962 617.025818,651.490967 
	C618.000916,653.254639 621.200745,655.306824 622.756165,654.861084 
	C624.877686,654.253113 626.356934,651.403809 628.783936,648.791687 
	C629.091370,649.875793 630.037354,651.458984 629.804138,652.843506 
	C629.527893,654.482910 628.609131,656.722168 627.313354,657.351379 
	C623.093079,659.400574 618.867432,658.889221 615.358215,655.466064 
	C612.378235,652.559143 611.939209,648.994446 613.631836,645.382446 
	C615.699341,640.970154 619.458313,639.209045 624.273071,639.692688 
	C624.931396,639.758789 625.578186,639.938660 626.574707,640.192383 
z"/>
<path fill="#D3C9BB" opacity="1.000000" stroke="none" 
	d="
M560.549194,639.609009 
	C562.861267,639.861694 564.929321,639.866394 566.680115,640.614197 
	C567.645813,641.026611 568.078735,642.686340 568.751892,643.783752 
	C567.641052,643.715210 566.401123,643.942932 565.442383,643.525269 
	C561.838440,641.955261 558.564697,642.435303 557.018616,646.021057 
	C556.207275,647.902466 556.386292,651.545105 557.648438,652.660217 
	C559.353271,654.166443 562.513123,654.121399 565.083801,654.509583 
	C566.281067,654.690491 567.560791,654.324585 568.803162,654.206543 
	C567.832825,655.451660 567.118591,657.281372 565.846863,657.838623 
	C560.864380,660.021484 555.117371,657.341614 553.182068,652.280762 
	C551.109253,646.860291 553.743103,642.109497 560.549194,639.609009 
z"/>
<path fill="#DFD2C4" opacity="1.000000" stroke="none" 
	d="
M598.322876,653.063477 
	C598.250671,654.052551 598.348022,655.095825 598.054138,656.013977 
	C597.806030,656.788940 597.104126,657.418701 596.603088,658.112671 
	C596.075806,657.443237 595.107788,656.784485 595.091309,656.102661 
	C594.964050,650.851257 595.021301,645.595337 595.021301,639.974182 
	C599.992798,640.247681 605.512512,637.833923 608.489990,642.745972 
	C609.761963,644.844360 607.965149,648.802856 607.562866,651.916138 
	C607.115295,651.869202 606.667786,651.822266 606.220215,651.775330 
	C607.353088,653.797607 608.485962,655.819946 609.618835,657.842285 
	C609.169373,658.177124 608.719849,658.512024 608.270325,658.846863 
	C606.391541,656.634460 604.512695,654.421997 602.239624,651.796875 
	C602.729309,650.555298 603.756226,649.831116 604.459290,648.869995 
	C605.262878,647.771484 606.481262,646.280273 606.226013,645.294678 
	C605.958191,644.260620 604.259583,643.294067 602.998718,642.903564 
	C601.684814,642.496704 600.146912,642.812805 598.322815,642.812805 
	C598.322815,646.553162 598.322815,649.808289 598.322876,653.063477 
z"/>
<path fill="#DACFC2" opacity="1.000000" stroke="none" 
	d="
M655.924194,645.130798 
	C657.565308,642.893799 659.014160,640.991150 660.463013,639.088440 
	C661.015137,639.458679 661.567200,639.828918 662.119263,640.199158 
	C660.863464,642.552979 659.432007,644.832581 658.396973,647.279724 
	C657.143005,650.244324 656.254333,653.361755 655.137146,656.387024 
	C654.887390,657.063354 654.442444,658.000732 653.908508,658.142090 
	C653.408875,658.274292 652.093384,657.449768 652.124573,657.148987 
	C652.811279,650.541809 647.690613,646.298889 645.619629,640.837830 
	C645.530457,640.602600 645.746643,640.251465 646.203735,638.413879 
	C649.075317,641.926941 651.373230,644.738220 653.873352,647.796875 
	C654.540588,646.959778 655.136230,646.212402 655.924194,645.130798 
z"/>
<path fill="#DACFC2" opacity="1.000000" stroke="none" 
	d="
M642.739441,658.265137 
	C639.988586,658.266968 637.671082,658.266968 634.605164,658.266968 
	C634.605164,652.614075 634.548767,647.049561 634.692383,641.490173 
	C634.706726,640.934509 635.936340,640.410339 636.601929,639.871582 
	C637.061951,640.623291 637.895020,641.363098 637.919617,642.128845 
	C638.051514,646.233093 637.981873,650.343933 637.981873,654.742065 
	C640.139771,654.849609 641.785706,654.763184 643.358032,655.062866 
	C644.630615,655.305359 645.814758,656.012390 647.038086,656.513367 
	C645.749695,657.096741 644.461304,657.680054 642.739441,658.265137 
z"/>
<path fill="#553D33" opacity="1.000000" stroke="none" 
	d="
M104.751083,620.930603 
	C106.233040,620.757385 107.772453,620.784058 109.187309,620.377380 
	C116.503166,618.274841 123.787170,616.061523 131.487442,613.855652 
	C131.927261,614.296753 131.961914,614.769104 131.997681,615.596497 
	C122.588959,619.088806 113.179131,622.226013 103.543015,625.601196 
	C102.208305,625.097595 101.099869,624.356018 99.928680,623.222534 
	C99.865929,622.830627 99.945137,622.875122 100.175873,622.827576 
	C100.590858,622.491089 100.775124,622.202209 100.959381,621.913269 
	C100.959381,621.913269 100.895859,621.960510 101.218521,621.949402 
	C102.611153,621.602417 103.681122,621.266541 104.751083,620.930603 
z"/>
<path fill="#49423E" opacity="1.000000" stroke="none" 
	d="
M598.656250,653.074097 
	C598.322815,649.808289 598.322815,646.553162 598.322815,642.812805 
	C600.146912,642.812805 601.684814,642.496704 602.998718,642.903564 
	C604.259583,643.294067 605.958191,644.260620 606.226013,645.294678 
	C606.481262,646.280273 605.262878,647.771484 604.459290,648.869995 
	C603.756226,649.831116 602.729309,650.555298 601.901184,651.760803 
	C600.967896,652.453186 599.978760,652.768921 598.656250,653.074097 
z"/>
<path fill="#553D33" opacity="1.000000" stroke="none" 
	d="
M125.071548,609.211304 
	C120.385208,611.861389 115.641991,614.030701 110.471695,615.769531 
	C110.007080,615.044312 109.969528,614.749634 109.931992,614.454956 
	C114.654289,612.220215 119.376587,609.985413 124.488548,607.761230 
	C124.923691,608.091309 124.969177,608.410889 125.071548,609.211304 
z"/>
<path fill="#343332" opacity="1.000000" stroke="none" 
	d="
M272.969879,452.030762 
	C272.941803,451.695953 272.805054,451.413849 272.281799,450.791870 
	C271.721466,450.150818 271.438904,449.902313 271.156342,449.653839 
	C270.205780,448.238281 269.255249,446.822723 268.065735,445.179932 
	C247.966507,417.519135 244.119858,385.390961 240.885223,352.649719 
	C243.920105,352.145569 246.963226,352.072693 250.522644,352.362549 
	C251.375122,354.009125 251.709778,355.293365 252.047714,356.576782 
	C256.281860,372.657410 263.064636,387.462402 274.016663,400.549683 
	C278.992279,406.743683 283.854004,412.625305 288.715698,418.506927 
	C289.253662,418.211029 289.791656,417.915131 290.329620,417.619232 
	C290.329620,413.082092 290.329620,408.544922 290.768188,404.006073 
	C295.054993,404.003845 298.903229,404.003326 302.851837,404.422424 
	C303.023529,405.671814 303.066223,406.505188 303.170410,407.330841 
	C304.987244,421.727661 309.375946,434.954926 320.563293,445.009857 
	C325.417480,449.372681 330.915405,452.392395 337.707642,451.815308 
	C346.175110,451.095886 349.013733,445.211487 344.811523,437.964935 
	C341.796967,432.766479 339.272400,427.283844 336.529266,421.928009 
	C353.996521,424.243225 370.246155,424.123322 387.040741,420.879791 
	C384.536957,427.355194 381.619995,433.409912 378.492981,439.354126 
	C375.768738,444.532654 376.614288,447.806183 381.944611,450.225006 
	C388.970215,453.413208 395.349426,451.340607 401.160583,447.111816 
	C408.091034,442.068420 413.284637,435.326843 415.671387,427.241791 
	C418.287354,418.380249 419.486816,409.100525 421.684753,400.004639 
	C425.945862,401.006409 429.825714,402.006561 433.756958,403.419464 
	C433.566345,408.462830 433.324341,413.093445 433.082336,417.724091 
	C433.771637,417.971954 434.460907,418.219818 435.150208,418.467682 
	C439.427399,413.291229 443.704620,408.114746 448.273621,402.781250 
	C461.203613,387.273499 469.584351,369.805939 473.380646,350.354034 
	C476.182800,335.996185 478.050446,321.455933 480.334442,306.996948 
	C482.266876,307.659424 484.199280,308.321930 486.532471,309.430786 
	C486.589203,316.261688 486.245148,322.646301 485.746704,329.407562 
	C485.064758,335.515198 484.537201,341.246185 484.009644,346.977142 
	C484.543488,347.222687 485.077332,347.468231 485.611176,347.713776 
	C489.012848,341.410980 493.143127,335.383240 495.650146,328.742676 
	C499.690552,318.040619 502.660675,306.934509 506.082916,295.999084 
	C506.523590,296.002777 506.964233,296.006439 507.735352,296.017029 
	C504.839569,312.444214 500.013062,328.306366 491.695068,342.950012 
	C491.530884,343.239105 491.386078,343.577606 491.138336,343.775391 
	C481.573181,351.411682 482.277588,362.568329 480.970123,373.089050 
	C477.859924,398.115112 472.195190,422.298035 456.992004,443.578491 
	C455.326752,446.022949 453.751404,448.138306 451.759460,450.719482 
	C443.328949,459.845856 435.777405,468.995819 427.220276,477.081543 
	C391.765442,510.583466 337.850159,514.515320 299.723694,479.484589 
	C290.328735,470.852509 281.862854,461.209198 272.969879,452.030762 
z"/>
<path fill="#F9B995" opacity="1.000000" stroke="none" 
	d="
M447.981812,402.938263 
	C443.704620,408.114746 439.427399,413.291229 435.150208,418.467682 
	C434.460907,418.219818 433.771637,417.971954 433.082336,417.724091 
	C433.324341,413.093445 433.566345,408.462830 433.874695,403.004089 
	C434.044830,398.355774 434.370819,394.525757 434.202179,390.717590 
	C433.923035,384.413849 430.944855,379.274109 425.371857,376.525665 
	C409.213287,368.556824 392.591492,362.304352 374.059143,365.784454 
	C375.054474,364.892548 375.983521,364.364075 376.920258,363.849518 
	C381.619904,361.267975 386.321564,358.690033 391.385681,356.024261 
	C396.344696,351.938354 396.439636,344.689575 391.972900,337.788452 
	C391.853363,337.296509 391.744446,337.033325 391.635529,336.770142 
	C391.519714,336.852936 391.403870,336.935730 391.288025,337.018494 
	C391.530731,337.342041 391.773438,337.665588 392.000183,338.453003 
	C391.678406,343.325531 391.372589,347.734192 390.644806,352.107635 
	C383.514954,349.909668 377.989410,352.490326 372.590485,356.197876 
	C364.316711,361.879700 356.296082,361.584778 348.585815,354.900909 
	C345.271515,352.027802 342.365356,350.789490 337.879272,351.804443 
	C332.434082,353.036377 331.028229,351.477966 331.032776,345.825897 
	C331.035156,342.836731 331.362518,339.847809 331.574615,336.338745 
	C325.015961,347.184814 326.869232,353.795074 337.323578,359.304871 
	C341.009521,361.247498 344.451904,363.652252 347.590698,365.846924 
	C330.776886,362.887299 316.110718,368.870117 301.462250,374.792847 
	C293.072510,378.185059 289.387054,384.804901 289.473938,393.613708 
	C289.508148,397.080872 290.029907,400.543243 290.329620,404.007782 
	C290.329620,408.544922 290.329620,413.082092 290.329620,417.619232 
	C289.791656,417.915131 289.253662,418.211029 288.715698,418.506927 
	C283.854004,412.625305 278.992279,406.743683 274.049500,400.143005 
	C272.966370,396.267914 272.112732,393.055450 270.938568,389.964783 
	C262.096680,366.691071 252.315994,343.693359 249.894623,318.536926 
	C248.184830,300.773071 247.829391,283.075745 253.448273,265.730957 
	C256.703369,264.157349 259.492432,262.271057 262.550751,261.070984 
	C268.831116,258.606598 275.269623,254.619171 281.617859,254.666092 
	C293.783051,254.755981 305.930634,257.223480 318.057281,259.141785 
	C317.629181,265.266846 317.377472,265.378998 311.718872,264.130096 
	C301.227783,261.814606 290.919922,262.395691 280.961090,266.608459 
	C279.234344,267.338867 277.749481,268.641022 276.152924,269.679108 
	C302.406738,256.383728 322.180511,267.455811 340.136871,286.538086 
	C340.955231,283.228668 341.497192,281.037079 342.039124,278.845520 
	C348.652405,292.048157 348.540680,305.794189 347.353699,319.684235 
	C349.636780,308.350372 351.264801,297.040771 348.971619,285.621124 
	C347.011963,275.862610 343.906799,266.668518 335.398773,260.302307 
	C341.389771,251.801971 338.652313,243.565277 328.878662,242.307907 
	C316.059540,240.658707 303.085297,240.172501 290.167603,239.344376 
	C277.104248,238.506882 266.303314,242.699707 258.664673,253.785889 
	C258.923370,251.371262 259.419342,249.195740 259.948303,246.625854 
	C264.702667,233.953857 264.106842,221.162018 263.931976,208.345718 
	C263.792542,198.127426 263.238342,187.707153 264.943329,177.731201 
	C266.565857,168.237534 270.877136,159.203400 274.006287,149.967224 
	C277.103027,149.947983 280.291748,149.438553 283.279755,149.998978 
	C293.313843,151.880920 303.143799,151.500000 312.845306,148.339249 
	C319.890839,146.043808 326.909424,146.124451 333.943848,148.339432 
	C352.594940,154.212219 371.190277,154.609970 389.790619,147.999588 
	C399.081360,144.697739 408.229523,146.159561 417.054779,149.808868 
	C427.981628,154.327225 439.119934,157.205444 451.556580,156.128937 
	C459.671814,173.110214 462.849915,190.263290 460.130829,208.441956 
	C459.277496,214.146820 458.801727,220.067886 459.333832,225.780014 
	C460.006348,232.999466 461.947327,240.095856 463.186249,247.272064 
	C463.400116,248.511047 462.844330,249.882904 462.378082,251.007904 
	C456.693146,243.939651 449.967804,239.274078 440.878815,239.616959 
	C425.767731,240.187042 410.611572,240.518982 395.584930,242.041885 
	C385.122192,243.102249 382.191528,250.348816 387.137268,260.018677 
	C384.714386,263.558746 381.928802,266.497955 380.116821,269.948456 
	C372.084381,285.244385 373.452087,301.531708 375.598328,317.860565 
	C376.294800,304.840240 374.566559,291.426514 381.919678,278.641541 
	C383.142242,281.175171 383.991943,282.936035 385.021912,285.070557 
	C395.193054,272.685669 407.147705,264.752289 423.423981,263.990936 
	C432.126129,266.155701 440.397430,268.311920 448.604218,270.451324 
	C441.370209,264.290497 432.202454,263.092529 422.632751,262.088715 
	C418.847351,262.404449 415.399414,262.672089 411.957336,263.001190 
	C408.354553,263.345642 406.561768,261.912659 407.400085,257.997253 
	C428.877289,252.744949 449.636963,250.444778 468.297882,265.281494 
	C468.804871,265.684601 469.455017,265.907593 470.193939,266.544250 
	C474.406281,281.365448 475.487335,295.957031 474.282806,311.076782 
	C472.532837,333.043030 466.415375,353.674561 458.566010,374.007965 
	C454.868591,383.586029 451.499634,393.290863 447.981812,402.938263 
M401.997711,276.007324 
	C401.997711,276.007324 402.060181,276.075806 401.475861,275.403412 
	C400.794220,275.916992 400.112579,276.430573 398.793579,276.983002 
	C396.860565,279.345062 394.927551,281.707123 392.964630,283.988739 
	C392.964630,283.988739 393.041443,283.950500 392.911652,284.151886 
	C392.745422,284.322418 392.716217,284.528961 393.559357,285.106689 
	C396.574493,285.771210 399.566071,286.587463 402.610992,287.059998 
	C406.041534,287.592316 409.520172,287.815063 413.737671,288.218781 
	C419.314453,288.466248 424.891205,288.713715 431.401337,289.007172 
	C438.543579,288.751434 445.096863,286.931549 451.087555,281.865143 
	C452.552155,282.031860 454.016785,282.198547 455.481384,282.365265 
	C455.720062,281.703156 455.958740,281.041046 456.197388,280.378937 
	C450.467255,276.941925 445.067932,272.663971 438.934814,270.251312 
	C427.808044,265.874146 416.349091,264.843842 405.627563,271.987579 
	C404.543060,272.710205 403.932953,274.144745 403.045013,275.166199 
	C403.045013,275.166199 403.072418,275.069153 402.285828,274.759094 
	C402.211975,275.195648 402.138092,275.632172 401.997711,276.007324 
M310.376190,288.914032 
	C317.025146,288.659088 323.382477,287.317291 330.357147,284.333710 
	C326.328766,280.778320 323.187622,278.005981 320.004791,274.515686 
	C307.451080,262.121094 278.844940,266.267487 267.882355,282.454376 
	C269.223114,282.454376 270.278351,282.454376 271.899475,283.066956 
	C278.668030,285.191589 285.436615,287.316193 292.989716,289.287018 
	C298.469666,289.166748 303.949585,289.046478 310.376190,288.914032 
M411.874969,297.811340 
	C409.559479,297.232758 407.243988,296.654144 404.124847,295.874756 
	C412.378540,304.001251 434.372681,304.729462 441.855835,297.602234 
	C431.539276,300.452942 422.089630,300.639038 411.874969,297.811340 
M296.555084,302.990417 
	C302.972229,302.858276 309.015991,301.457733 315.443970,297.978668 
	C304.499725,298.807922 294.595093,299.558441 284.690430,300.308929 
	C284.605255,300.477081 284.520111,300.645203 284.434937,300.813354 
	C288.176056,301.538605 291.917175,302.263824 296.555084,302.990417 
M417.996735,362.505890 
	C414.970367,360.048706 411.944000,357.591492 408.917633,355.134308 
	C408.506561,355.652283 408.095459,356.170258 407.684387,356.688263 
	C415.053436,363.143463 422.422516,369.598663 429.791565,376.053894 
	C428.880646,368.873779 422.552551,367.047333 417.996735,362.505890 
M300.453400,370.997498 
	C304.954224,366.725952 309.455048,362.454407 313.955902,358.182892 
	C313.500183,357.710785 313.044464,357.238678 312.588745,356.766571 
	C306.642426,361.972321 300.696106,367.178070 294.749817,372.383820 
	C295.129211,372.859589 295.508636,373.335327 295.888031,373.811066 
	C297.230499,373.022614 298.572968,372.234161 300.453400,370.997498 
M332.514648,334.433197 
	C332.514648,334.433197 332.565125,334.527863 332.514648,334.433197 
z"/>
<path fill="#EC9A77" opacity="1.000000" stroke="none" 
	d="
M448.273621,402.781250 
	C451.499634,393.290863 454.868591,383.586029 458.566010,374.007965 
	C466.415375,353.674561 472.532837,333.043030 474.282806,311.076782 
	C475.487335,295.957031 474.406281,281.365448 470.231201,266.151245 
	C467.623322,260.683441 465.133698,255.938416 462.644073,251.193375 
	C462.844330,249.882904 463.400116,248.511047 463.186249,247.272064 
	C461.947327,240.095856 460.006348,232.999466 459.333832,225.780014 
	C458.801727,220.067886 459.277496,214.146820 460.130829,208.441956 
	C462.849915,190.263290 459.671814,173.110214 452.016663,156.220993 
	C457.658081,154.775940 460.930206,158.590424 463.992920,162.198517 
	C471.093567,170.563583 472.386139,180.875168 472.673615,191.286789 
	C472.852417,197.762772 472.408875,204.270416 471.972748,210.745560 
	C471.280609,221.021973 472.111694,231.121506 475.940979,240.707794 
	C484.488342,262.105408 483.170197,284.070251 480.288147,306.587555 
	C478.050446,321.455933 476.182800,335.996185 473.380646,350.354034 
	C469.584351,369.805939 461.203613,387.273499 448.273621,402.781250 
z"/>
<path fill="#EE9D79" opacity="1.000000" stroke="none" 
	d="
M273.630005,149.919830 
	C270.877136,159.203400 266.565857,168.237534 264.943329,177.731201 
	C263.238342,187.707153 263.792542,198.127426 263.931976,208.345718 
	C264.106842,221.162018 264.702667,233.953857 259.585510,246.612457 
	C257.434204,245.997055 255.693542,244.973221 253.919052,244.011810 
	C252.007187,242.975983 250.063660,241.998611 248.133942,240.995743 
	C253.477997,225.643814 251.612488,209.869629 250.890854,194.159332 
	C250.361237,182.629074 252.254074,171.625793 258.598450,161.765976 
	C262.146545,156.251907 266.334198,151.326340 273.630005,149.919830 
z"/>
<path fill="#ED9A77" opacity="1.000000" stroke="none" 
	d="
M253.104111,265.728943 
	C247.829391,283.075745 248.184830,300.773071 249.894623,318.536926 
	C252.315994,343.693359 262.096680,366.691071 270.938568,389.964783 
	C272.112732,393.055450 272.966370,396.267914 273.935608,399.830658 
	C263.064636,387.462402 256.281860,372.657410 252.047714,356.576782 
	C251.709778,355.293365 251.375122,354.009125 250.893311,352.361206 
	C248.885040,341.394928 247.022415,330.792694 244.894531,319.822632 
	C244.629288,319.454834 244.687363,319.363831 244.687347,319.363831 
	C244.037003,311.141541 243.347595,302.922089 242.747269,294.696167 
	C242.144699,286.439667 241.630920,278.176727 241.014343,269.458679 
	C241.416794,266.643829 241.883118,264.286865 242.376343,261.523468 
	C242.872467,259.616974 243.341705,258.116913 244.354950,256.310730 
	C248.542236,257.001465 252.185532,257.998291 255.755829,259.322144 
	C254.823257,261.675751 253.963684,263.702362 253.104111,265.728943 
z"/>
<path fill="#F6B793" opacity="1.000000" stroke="none" 
	d="
M506.055756,295.586426 
	C502.660675,306.934509 499.690552,318.040619 495.650146,328.742676 
	C493.143127,335.383240 489.012848,341.410980 485.611176,347.713776 
	C485.077332,347.468231 484.543488,347.222687 484.009644,346.977142 
	C484.537201,341.246185 485.064758,335.515198 486.062073,329.254211 
	C490.461578,324.534210 492.701202,319.580902 491.932739,313.842651 
	C491.043427,307.201996 489.590973,300.636719 488.383057,294.038727 
	C488.531952,292.280334 488.680847,290.521973 489.190186,288.183502 
	C492.154175,283.804413 494.485138,279.772095 497.462524,276.292938 
	C499.277954,274.171539 501.748352,274.018707 502.029846,277.901733 
	C502.272308,281.246338 502.344757,284.603333 502.492371,287.954834 
	C503.505005,285.001251 504.317871,281.971558 504.417877,278.918457 
	C504.498718,276.450836 503.720551,273.955078 503.323425,271.471802 
	C500.895630,272.190613 498.171814,272.442749 496.115356,273.747070 
	C493.572723,275.359741 491.584259,277.846130 489.356354,279.955048 
	C488.627838,273.397125 490.491516,268.358398 497.016785,265.490234 
	C503.115387,262.809601 508.008514,265.336365 507.854095,272.023224 
	C507.675659,279.750000 506.673248,287.457764 506.055756,295.586426 
z"/>
<path fill="#3A3A39" opacity="1.000000" stroke="none" 
	d="
M306.321960,103.613388 
	C299.166656,103.465118 292.438629,103.465118 285.647247,103.465118 
	C300.559631,90.166847 344.963623,106.148804 352.069763,127.908638 
	C339.584106,114.801880 325.053711,105.640556 306.321960,103.613388 
z"/>
<path fill="#3A3A39" opacity="1.000000" stroke="none" 
	d="
M366.000031,122.002258 
	C353.910858,108.549706 338.749603,100.437706 322.363647,94.226265 
	C341.272034,94.484848 365.462250,110.260582 370.039764,125.830978 
	C368.748322,124.660210 367.456879,123.489433 366.000031,122.002258 
z"/>
<path fill="#3C3B3B" opacity="1.000000" stroke="none" 
	d="
M361.303253,87.772377 
	C360.442902,86.668106 359.833313,85.799858 358.951172,84.543427 
	C371.730194,88.047806 389.959869,112.199318 388.333130,129.916336 
	C386.977264,127.074898 386.120911,125.524696 385.476562,123.890877 
	C380.825378,112.097099 374.556885,101.270210 366.163239,91.741920 
	C364.874603,90.279114 363.102478,89.242256 361.303253,87.772377 
z"/>
<path fill="#3C3B3B" opacity="1.000000" stroke="none" 
	d="
M428.129242,107.959686 
	C430.488190,115.463875 432.878418,122.582947 428.280518,131.094681 
	C427.087555,111.993454 420.054138,96.634018 406.238007,83.581100 
	C414.176453,85.460770 424.542328,97.398056 428.129242,107.959686 
z"/>
<path fill="#ED9672" opacity="1.000000" stroke="none" 
	d="
M255.828812,258.995148 
	C252.185532,257.998291 248.542236,257.001465 244.507446,256.004181 
	C245.329407,251.222870 246.542877,246.441986 247.945145,241.328430 
	C250.063660,241.998611 252.007187,242.975983 253.919052,244.011810 
	C255.693542,244.973221 257.434204,245.997055 259.552551,247.006805 
	C259.419342,249.195740 258.923370,251.371262 258.591644,254.099014 
	C257.780212,256.099213 256.804504,257.547180 255.828812,258.995148 
z"/>
<path fill="#EC9A77" opacity="1.000000" stroke="none" 
	d="
M488.254852,294.466064 
	C489.590973,300.636719 491.043427,307.201996 491.932739,313.842651 
	C492.701202,319.580902 490.461578,324.534210 486.216492,328.877563 
	C486.245148,322.646301 486.589203,316.261688 486.885651,309.437195 
	C487.267609,304.295959 487.697144,299.594696 488.254852,294.466064 
z"/>
<path fill="#3A3A39" opacity="1.000000" stroke="none" 
	d="
M299.907501,116.006088 
	C314.818787,118.858543 326.429352,126.021606 328.740631,134.567368 
	C317.862640,124.689766 305.330902,120.171074 292.251678,116.786072 
	C292.375641,116.337868 292.499634,115.889671 292.623627,115.441475 
	C294.908325,115.628105 297.193024,115.814735 299.907501,116.006088 
z"/>
<path fill="#3A3A39" opacity="1.000000" stroke="none" 
	d="
M273.686829,125.269958 
	C281.627777,125.100975 289.266113,124.380890 296.725922,125.229858 
	C302.325531,125.867134 307.541138,128.749710 310.523254,134.567810 
	C297.978607,127.837875 284.879456,125.003746 270.450348,126.861526 
	C271.402740,126.371971 272.355103,125.882408 273.686829,125.269958 
z"/>
<path fill="#3C3B3B" opacity="1.000000" stroke="none" 
	d="
M403.152679,117.048691 
	C398.948792,108.610672 394.855408,100.564369 390.861176,92.712990 
	C400.878723,96.954758 410.648315,118.028175 405.259735,127.907272 
	C404.479309,123.815826 403.871246,120.628113 403.152679,117.048691 
z"/>
<path fill="#3C3B3B" opacity="1.000000" stroke="none" 
	d="
M450.060333,132.854034 
	C448.711151,134.445618 447.524902,135.701599 446.338654,136.957581 
	C445.919525,136.796738 445.500427,136.635880 445.081329,136.475021 
	C449.874939,125.073494 450.412781,113.431778 447.650940,101.568810 
	C453.265808,111.564346 455.500397,121.754646 450.060333,132.854034 
z"/>
<path fill="#ED9672" opacity="1.000000" stroke="none" 
	d="
M489.241577,280.390320 
	C491.584259,277.846130 493.572723,275.359741 496.115356,273.747070 
	C498.171814,272.442749 500.895630,272.190613 503.323425,271.471802 
	C503.720551,273.955078 504.498718,276.450836 504.417877,278.918457 
	C504.317871,281.971558 503.505005,285.001251 502.492371,287.954834 
	C502.344757,284.603333 502.272308,281.246338 502.029846,277.901733 
	C501.748352,274.018707 499.277954,274.171539 497.462524,276.292938 
	C494.485138,279.772095 492.154175,283.804413 489.282288,287.813934 
	C489.051544,285.624817 489.089172,283.225189 489.241577,280.390320 
z"/>
<path fill="#F7B996" opacity="1.000000" stroke="none" 
	d="
M236.555450,344.910217 
	C224.211655,324.199249 217.746124,301.920471 215.779953,278.267670 
	C215.588409,275.963501 215.624146,273.601685 215.891464,271.305878 
	C216.512146,265.975372 218.560226,264.368866 224.574936,264.474243 
	C231.744614,267.506683 235.683929,272.271179 234.265808,280.456116 
	C231.327713,278.242554 229.017273,275.350800 226.131348,273.249390 
	C223.929291,271.645966 220.042297,270.263275 219.378357,274.391144 
	C218.725952,278.447174 220.033417,282.818481 220.480850,287.051422 
	C221.127258,286.986481 221.773666,286.921539 222.420074,286.856598 
	C222.420074,283.026093 222.420074,279.195587 222.420074,274.450806 
	C232.769363,280.803925 234.514618,290.019501 234.648468,300.135071 
	C229.633942,311.318146 231.076080,321.484894 238.159637,330.954498 
	C238.817215,336.273102 239.474808,341.591675 240.270096,348.024078 
	C238.594681,346.586945 237.714035,345.831573 236.555450,344.910217 
z"/>
<path fill="#ED9A77" opacity="1.000000" stroke="none" 
	d="
M238.207550,330.499725 
	C231.076080,321.484894 229.633942,311.318146 234.756958,300.355469 
	C235.304779,300.609833 235.540604,300.826996 235.839203,300.975891 
	C236.229004,304.690094 236.618805,308.404327 237.059525,312.815765 
	C237.159393,313.693298 237.208344,313.873596 237.257278,314.053925 
	C237.590012,319.384277 237.922729,324.714600 238.207550,330.499725 
z"/>
<path fill="#EA9977" opacity="1.000000" stroke="none" 
	d="
M235.903839,300.526062 
	C235.540604,300.826996 235.304779,300.609833 235.023224,300.104065 
	C234.514618,290.019501 232.769363,280.803925 222.420074,274.450806 
	C222.420074,279.195587 222.420074,283.026093 222.420074,286.856598 
	C221.773666,286.921539 221.127258,286.986481 220.480850,287.051422 
	C220.033417,282.818481 218.725952,278.447174 219.378357,274.391144 
	C220.042297,270.263275 223.929291,271.645966 226.131348,273.249390 
	C229.017273,275.350800 231.327713,278.242554 234.191010,280.854126 
	C234.987030,287.301331 235.477737,293.688812 235.903839,300.526062 
z"/>
<path fill="#343332" opacity="1.000000" stroke="none" 
	d="
M237.541855,314.208832 
	C237.208344,313.873596 237.159393,313.693298 237.152374,313.235901 
	C238.859177,312.603180 240.524063,312.247528 242.508133,311.823730 
	C242.333527,316.783478 240.135010,315.705536 237.541855,314.208832 
z"/>
<path fill="#343332" opacity="1.000000" stroke="none" 
	d="
M244.267685,319.248383 
	C244.687363,319.363831 244.629288,319.454834 244.636078,319.468079 
	C243.779419,321.079437 242.915955,322.677582 242.052505,324.275726 
	C239.813950,320.843231 240.490280,319.155212 244.267685,319.248383 
z"/>
<path fill="#EC9977" opacity="1.000000" stroke="none" 
	d="
M272.962830,452.421967 
	C281.862854,461.209198 290.328735,470.852509 299.723694,479.484589 
	C337.850159,514.515320 391.765442,510.583466 427.220276,477.081543 
	C435.777405,468.995819 443.328949,459.845856 451.643982,451.029327 
	C448.156403,458.552338 444.891296,466.552856 440.429260,473.818237 
	C436.114899,480.843140 431.195679,487.727600 425.438538,493.589966 
	C411.007416,508.284882 394.434875,519.382019 373.221497,522.104492 
	C361.530762,523.604797 350.112183,523.108154 338.694885,520.401611 
	C326.177307,517.434326 315.936462,510.407043 306.648560,502.008789 
	C292.799133,489.485809 282.633667,474.145203 274.318878,457.537994 
	C273.597321,456.096832 273.397797,454.394287 272.962830,452.421967 
z"/>
<path fill="#EC9977" opacity="1.000000" stroke="none" 
	d="
M271.205383,449.944214 
	C271.438904,449.902313 271.721466,450.150818 272.070251,450.679688 
	C271.842468,450.718201 271.548462,450.476379 271.205383,449.944214 
z"/>
<path fill="#282726" opacity="1.000000" stroke="none" 
	d="
M109.595657,614.599426 
	C109.969528,614.749634 110.007080,615.044312 110.098312,615.781494 
	C108.498444,617.626160 106.844887,619.028259 104.971207,620.680481 
	C103.681122,621.266541 102.611153,621.602417 101.196960,621.916260 
	C103.654922,619.510742 106.457123,617.127319 109.595657,614.599426 
z"/>
<path fill="#282726" opacity="1.000000" stroke="none" 
	d="
M100.585449,621.796143 
	C100.775124,622.202209 100.590858,622.491089 100.158745,622.869629 
	C100.011093,622.532532 100.111305,622.105835 100.585449,621.796143 
z"/>
<path fill="#343332" opacity="1.000000" stroke="none" 
	d="
M586.120239,644.743164 
	C588.257507,648.043762 588.729187,651.457336 585.728149,653.467529 
	C583.774719,654.776001 580.014160,655.333130 578.157227,654.286194 
	C576.337219,653.260193 574.910278,649.710571 575.066223,647.386353 
	C575.390503,642.554565 580.694214,641.298523 586.120239,644.743164 
z"/>
<path fill="#353434" opacity="1.000000" stroke="none" 
	d="
M290.768188,404.006073 
	C290.029907,400.543243 289.508148,397.080872 289.473938,393.613708 
	C289.387054,384.804901 293.072510,378.185059 301.462250,374.792847 
	C316.110718,368.870117 330.776886,362.887299 347.895935,366.057556 
	C357.093353,370.098480 365.559631,371.441681 373.996368,366.154297 
	C392.591492,362.304352 409.213287,368.556824 425.371857,376.525665 
	C430.944855,379.274109 433.923035,384.413849 434.202179,390.717590 
	C434.370819,394.525757 434.044830,398.355774 433.823334,402.591370 
	C429.825714,402.006561 425.945862,401.006409 421.598022,399.608032 
	C420.881775,395.922150 420.934357,392.481354 416.728271,390.812988 
	C415.256927,390.528534 414.046631,390.506622 412.383728,390.422241 
	C389.881134,390.287994 367.830597,390.092743 345.781403,390.193024 
	C333.528046,390.248718 321.276886,390.797333 308.654297,391.045471 
	C306.611481,392.545685 304.192444,393.839294 303.454102,395.774231 
	C302.510681,398.246429 302.923309,401.236145 302.751526,404.002808 
	C298.903229,404.003326 295.054993,404.003845 290.768188,404.006073 
z"/>
<path fill="#F6B794" opacity="1.000000" stroke="none" 
	d="
M416.989319,391.075562 
	C420.934357,392.481354 420.881775,395.922150 421.216797,399.606415 
	C419.486816,409.100525 418.287354,418.380249 415.671387,427.241791 
	C413.284637,435.326843 408.091034,442.068420 401.160583,447.111816 
	C395.349426,451.340607 388.970215,453.413208 381.944611,450.225006 
	C376.614288,447.806183 375.768738,444.532654 378.492981,439.354126 
	C381.619995,433.409912 384.536957,427.355194 387.040741,420.879791 
	C370.246155,424.123322 353.996521,424.243225 336.529266,421.928009 
	C339.272400,427.283844 341.796967,432.766479 344.811523,437.964935 
	C349.013733,445.211487 346.175110,451.095886 337.707642,451.815308 
	C330.915405,452.392395 325.417480,449.372681 320.563293,445.009857 
	C309.375946,434.954926 304.987244,421.727661 303.170410,407.330841 
	C303.066223,406.505188 303.023529,405.671814 302.851868,404.422424 
	C302.923309,401.236145 302.510681,398.246429 303.454102,395.774231 
	C304.192444,393.839294 306.611481,392.545685 308.650970,391.275177 
	C309.018646,391.889984 309.005768,392.196167 308.986694,392.898438 
	C311.643219,394.898254 314.292542,396.501434 316.998566,398.445923 
	C321.061310,402.868835 324.478668,407.869476 329.173157,410.876160 
	C351.944977,425.460876 381.555298,422.897217 402.556824,403.766174 
	C403.947388,402.499481 404.277100,400.068207 405.437073,398.087341 
	C407.998077,396.659851 410.222321,395.323608 412.656311,393.966156 
	C413.228149,393.751160 413.590210,393.557343 414.149231,393.148438 
	C414.539307,392.612427 414.732483,392.291443 415.221710,391.955139 
	C416.008270,391.651764 416.498779,391.363647 416.989319,391.075562 
z"/>
<path fill="#373533" opacity="1.000000" stroke="none" 
	d="
M255.755829,259.322144 
	C256.804504,257.547180 257.780212,256.099213 258.828918,254.338104 
	C266.303314,242.699707 277.104248,238.506882 290.167603,239.344376 
	C303.085297,240.172501 316.059540,240.658707 328.878662,242.307907 
	C338.652313,243.565277 341.389771,251.801971 335.026245,260.319946 
	C328.990265,259.993713 323.537903,259.349091 318.085541,258.704468 
	C305.930634,257.223480 293.783051,254.755981 281.617859,254.666092 
	C275.269623,254.619171 268.831116,258.606598 262.550751,261.070984 
	C259.492432,262.271057 256.703369,264.157349 253.448273,265.730957 
	C253.963684,263.702362 254.823257,261.675751 255.755829,259.322144 
z"/>
<path fill="#383634" opacity="1.000000" stroke="none" 
	d="
M462.378082,251.007904 
	C465.133698,255.938416 467.623322,260.683441 470.075684,265.821533 
	C469.455017,265.907593 468.804871,265.684601 468.297882,265.281494 
	C449.636963,250.444778 428.877289,252.744949 406.997803,257.934265 
	C404.097198,258.419556 401.984528,259.014282 399.840698,259.164490 
	C395.643921,259.458496 391.429718,259.504486 387.222748,259.653168 
	C382.191528,250.348816 385.122192,243.102249 395.584930,242.041885 
	C410.611572,240.518982 425.767731,240.187042 440.878815,239.616959 
	C449.967804,239.274078 456.693146,243.939651 462.378082,251.007904 
z"/>
<path fill="#EF9F7C" opacity="1.000000" stroke="none" 
	d="
M318.057281,259.141785 
	C323.537903,259.349091 328.990265,259.993713 334.815155,260.620697 
	C343.906799,266.668518 347.011963,275.862610 348.971619,285.621124 
	C351.264801,297.040771 349.636780,308.350372 347.353699,319.684235 
	C348.540680,305.794189 348.652405,292.048157 342.039124,278.845520 
	C341.497192,281.037079 340.955231,283.228668 340.136871,286.538086 
	C322.180511,267.455811 302.406738,256.383728 276.152924,269.679108 
	C277.749481,268.641022 279.234344,267.338867 280.961090,266.608459 
	C290.919922,262.395691 301.227783,261.814606 311.718872,264.130096 
	C317.377472,265.378998 317.629181,265.266846 318.057281,259.141785 
z"/>
<path fill="#EE9D79" opacity="1.000000" stroke="none" 
	d="
M387.137268,260.018677 
	C391.429718,259.504486 395.643921,259.458496 399.840698,259.164490 
	C401.984528,259.014282 404.097198,258.419556 406.626221,258.088715 
	C406.561768,261.912659 408.354553,263.345642 411.957336,263.001190 
	C415.399414,262.672089 418.847351,262.404449 422.640320,262.407043 
	C422.989655,263.130310 422.991394,263.556366 422.993134,263.982391 
	C407.147705,264.752289 395.193054,272.685669 385.021912,285.070557 
	C383.991943,282.936035 383.142242,281.175171 381.919678,278.641541 
	C374.566559,291.426514 376.294800,304.840240 375.598328,317.860565 
	C373.452087,301.531708 372.084381,285.244385 380.116821,269.948456 
	C381.928802,266.497955 384.714386,263.558746 387.137268,260.018677 
z"/>
<path fill="#EA9977" opacity="1.000000" stroke="none" 
	d="
M374.059143,365.784454 
	C365.559631,371.441681 357.093353,370.098480 348.310760,366.056641 
	C344.451904,363.652252 341.009521,361.247498 337.323578,359.304871 
	C326.869232,353.795074 325.015961,347.184814 331.574615,336.338745 
	C331.362518,339.847809 331.035156,342.836731 331.032776,345.825897 
	C331.028229,351.477966 332.434082,353.036377 337.879272,351.804443 
	C342.365356,350.789490 345.271515,352.027802 348.585815,354.900909 
	C356.296082,361.584778 364.316711,361.879700 372.590485,356.197876 
	C377.989410,352.490326 383.514954,349.909668 390.627289,352.498749 
	C391.028687,353.987030 391.025604,355.048950 391.022522,356.110870 
	C386.321564,358.690033 381.619904,361.267975 376.920258,363.849518 
	C375.983521,364.364075 375.054474,364.892548 374.059143,365.784454 
M339.301086,357.250885 
	C342.839539,359.261566 346.378021,361.272278 349.916473,363.282990 
	C350.190247,362.761780 350.464020,362.240601 350.737793,361.719421 
	C348.041290,358.026398 344.771210,355.429291 339.301086,357.250885 
M378.546234,356.753479 
	C376.671173,358.050018 374.796112,359.346558 372.921051,360.643097 
	C373.236908,361.158325 373.552795,361.673553 373.868652,362.188751 
	C377.546814,360.718018 381.224945,359.247284 384.903076,357.776550 
	C384.755737,357.229675 384.608398,356.682800 384.461090,356.135925 
	C382.732544,356.248932 381.004028,356.361938 378.546234,356.753479 
z"/>
<path fill="#3A3634" opacity="1.000000" stroke="none" 
	d="
M271.333588,282.454346 
	C270.278351,282.454376 269.223114,282.454376 267.882355,282.454376 
	C278.844940,266.267487 307.451080,262.121094 319.710602,274.893677 
	C317.556824,274.499847 315.697205,273.728027 313.519287,272.768311 
	C309.065094,271.744568 304.929230,270.908783 300.793396,270.072998 
	C300.643646,270.502930 300.493927,270.932831 300.344177,271.362762 
	C304.642273,272.496765 308.858337,273.915710 307.638367,279.419800 
	C306.973572,282.419128 305.288635,284.939636 301.556458,285.054230 
	C296.934692,285.196136 295.199585,282.180664 294.407227,278.384155 
	C295.890564,277.114044 296.984131,275.923615 298.077667,274.733154 
	C296.401764,273.833191 294.725830,272.933258 292.867401,271.790894 
	C291.555695,271.678253 290.426483,271.807953 288.919067,272.011414 
	C282.805054,275.541565 277.069305,278.997955 271.333588,282.454346 
z"/>
<path fill="#6F4329" opacity="1.000000" stroke="none" 
	d="
M430.467987,288.961182 
	C424.891205,288.713715 419.314453,288.466248 413.049438,287.999695 
	C409.533997,283.557526 408.099152,279.052063 409.776489,273.719421 
	C414.142609,272.315796 418.251740,270.955811 422.465637,270.131592 
	C423.479004,269.933472 424.839996,271.512939 425.897461,272.506927 
	C425.226532,272.852142 424.699249,272.965332 423.742188,273.053162 
	C419.888763,272.886688 416.425140,272.691101 415.993652,277.468140 
	C415.698761,280.732971 418.771759,284.718323 422.030151,284.734558 
	C426.074432,284.754761 427.845490,282.184235 428.313141,278.139954 
	C429.384064,276.305664 430.136963,274.663696 431.059753,272.775543 
	C431.784119,272.344116 432.338593,272.158844 433.043335,272.325165 
	C437.042419,278.901184 434.545685,284.063477 430.467987,288.961182 
z"/>
<path fill="#6D442C" opacity="1.000000" stroke="none" 
	d="
M289.297302,271.937653 
	C290.426483,271.807953 291.555695,271.678253 292.677338,272.113647 
	C293.119019,274.607147 293.568237,276.535522 294.017456,278.463867 
	C295.199585,282.180664 296.934692,285.196136 301.556458,285.054230 
	C305.288635,284.939636 306.973572,282.419128 307.638367,279.419800 
	C308.858337,273.915710 304.642273,272.496765 300.344177,271.362762 
	C300.493927,270.932831 300.643646,270.502930 300.793396,270.072998 
	C304.929230,270.908783 309.065094,271.744568 313.544556,273.226593 
	C315.550323,279.823151 313.438446,284.655640 309.429535,288.926208 
	C303.949585,289.046478 298.469666,289.166748 292.589966,288.961853 
	C287.607391,283.697174 287.124786,278.047394 289.297302,271.937653 
z"/>
<path fill="#49423E" opacity="1.000000" stroke="none" 
	d="
M426.041138,272.274902 
	C424.839996,271.512939 423.479004,269.933472 422.465637,270.131592 
	C418.251740,270.955811 414.142609,272.315796 409.364014,273.568848 
	C406.856201,274.188629 404.979462,274.718750 403.102692,275.248901 
	C403.932953,274.144745 404.543060,272.710205 405.627563,271.987579 
	C416.349091,264.843842 427.808044,265.874146 438.934814,270.251312 
	C445.067932,272.663971 450.467255,276.941925 456.197388,280.378937 
	C455.958740,281.041046 455.720062,281.703156 455.481384,282.365265 
	C454.016785,282.198547 452.552155,282.031860 450.564087,281.554077 
	C445.190796,276.551147 439.835876,272.793610 432.893036,271.973572 
	C432.338593,272.158844 431.784119,272.344116 430.731995,272.614960 
	C428.836578,272.558655 427.438843,272.416779 426.041138,272.274902 
z"/>
<path fill="#F3F2F0" opacity="1.000000" stroke="none" 
	d="
M288.919067,272.011414 
	C287.124786,278.047394 287.607391,283.697174 292.197693,289.038727 
	C285.436615,287.316193 278.668030,285.191589 271.616516,282.760651 
	C277.069305,278.997955 282.805054,275.541565 288.919067,272.011414 
z"/>
<path fill="#F3F2F0" opacity="1.000000" stroke="none" 
	d="
M433.043335,272.325165 
	C439.835876,272.793610 445.190796,276.551147 450.230499,281.544373 
	C445.096863,286.931549 438.543579,288.751434 430.934662,288.984192 
	C434.545685,284.063477 437.042419,278.901184 433.043335,272.325165 
z"/>
<path fill="#F3F2F0" opacity="1.000000" stroke="none" 
	d="
M309.902863,288.920135 
	C313.438446,284.655640 315.550323,279.823151 313.862885,273.414551 
	C315.697205,273.728027 317.556824,274.499847 319.731445,275.252625 
	C323.187622,278.005981 326.328766,280.778320 330.357147,284.333710 
	C323.382477,287.317291 317.025146,288.659088 309.902863,288.920135 
z"/>
<path fill="#F3F2F0" opacity="1.000000" stroke="none" 
	d="
M403.073853,275.207550 
	C404.979462,274.718750 406.856201,274.188629 409.145447,273.809082 
	C408.099152,279.052063 409.533997,283.557526 412.669525,287.976501 
	C409.520172,287.815063 406.041534,287.592316 402.610992,287.059998 
	C399.566071,286.587463 396.574493,285.771210 393.254059,284.736755 
	C392.948761,284.366852 393.041443,283.950500 393.041443,283.950500 
	C393.041443,283.950500 392.964630,283.988739 393.301178,283.917328 
	C396.244598,281.675385 398.851440,279.504822 401.734833,277.199219 
	C402.100311,276.958618 402.271118,276.845184 402.261871,276.748993 
	C402.239960,276.520264 402.132874,276.299683 402.060181,276.075806 
	C402.060181,276.075806 401.997711,276.007324 402.405945,276.175842 
	C402.900269,275.919281 402.986359,275.494232 403.072418,275.069153 
	C403.072418,275.069153 403.045013,275.166199 403.073853,275.207550 
z"/>
<path fill="#F2A581" opacity="1.000000" stroke="none" 
	d="
M412.279419,297.888733 
	C422.089630,300.639038 431.539276,300.452942 441.855835,297.602234 
	C434.372681,304.729462 412.378540,304.001251 404.124847,295.874756 
	C407.243988,296.654144 409.559479,297.232758 412.279419,297.888733 
z"/>
<path fill="#F2A581" opacity="1.000000" stroke="none" 
	d="
M296.106689,302.989746 
	C291.917175,302.263824 288.176056,301.538605 284.434937,300.813354 
	C284.520111,300.645203 284.605255,300.477081 284.690430,300.308929 
	C294.595093,299.558441 304.499725,298.807922 315.443970,297.978668 
	C309.015991,301.457733 302.972229,302.858276 296.106689,302.989746 
z"/>
<path fill="#EF9F7C" opacity="1.000000" stroke="none" 
	d="
M418.252899,362.757141 
	C422.552551,367.047333 428.880646,368.873779 429.791565,376.053894 
	C422.422516,369.598663 415.053436,363.143463 407.684387,356.688263 
	C408.095459,356.170258 408.506561,355.652283 408.917633,355.134308 
	C411.944000,357.591492 414.970367,360.048706 418.252899,362.757141 
z"/>
<path fill="#F2A581" opacity="1.000000" stroke="none" 
	d="
M300.184418,371.221588 
	C298.572968,372.234161 297.230499,373.022614 295.888031,373.811066 
	C295.508636,373.335327 295.129211,372.859589 294.749817,372.383820 
	C300.696106,367.178070 306.642426,361.972321 312.588745,356.766571 
	C313.044464,357.238678 313.500183,357.710785 313.955902,358.182892 
	C309.455048,362.454407 304.954224,366.725952 300.184418,371.221588 
z"/>
<path fill="#F2A581" opacity="1.000000" stroke="none" 
	d="
M423.423981,263.990936 
	C422.991394,263.556366 422.989655,263.130310 422.980347,262.385956 
	C432.202454,263.092529 441.370209,264.290497 448.604218,270.451324 
	C440.397430,268.311920 432.126129,266.155701 423.423981,263.990936 
z"/>
<path fill="#EA826A" opacity="1.000000" stroke="none" 
	d="
M391.385681,356.024261 
	C391.025604,355.048950 391.028687,353.987030 391.049255,352.533997 
	C391.372589,347.734192 391.678406,343.325531 391.991486,338.459045 
	C391.998749,338.001282 391.983551,338.017212 391.983551,338.017212 
	C396.439636,344.689575 396.344696,351.938354 391.385681,356.024261 
z"/>
<path fill="#706560" opacity="1.000000" stroke="none" 
	d="
M401.458282,277.334259 
	C398.851440,279.504822 396.244598,281.675385 393.316162,283.957550 
	C394.927551,281.707123 396.860565,279.345062 399.619446,277.059509 
	C400.782959,277.202118 401.120605,277.268188 401.458282,277.334259 
z"/>
<path fill="#49423E" opacity="1.000000" stroke="none" 
	d="
M401.734833,277.199219 
	C401.120605,277.268188 400.782959,277.202118 399.938110,277.040100 
	C400.112579,276.430573 400.794220,275.916992 401.768005,275.739624 
	C402.132874,276.299683 402.239960,276.520264 402.261871,276.748993 
	C402.271118,276.845184 402.100311,276.958618 401.734833,277.199219 
z"/>
<path fill="#EA826A" opacity="1.000000" stroke="none" 
	d="
M392.007446,337.995209 
	C391.773438,337.665588 391.530731,337.342041 391.288025,337.018494 
	C391.403870,336.935730 391.519714,336.852936 391.635529,336.770142 
	C391.744446,337.033325 391.853363,337.296509 391.972900,337.788452 
	C391.983551,338.017212 391.998749,338.001282 392.007446,337.995209 
z"/>
<path fill="#49423E" opacity="1.000000" stroke="none" 
	d="
M402.679138,274.914124 
	C402.986359,275.494232 402.900269,275.919281 402.439209,276.206543 
	C402.138092,275.632172 402.211975,275.195648 402.679138,274.914124 
z"/>
<path fill="#706560" opacity="1.000000" stroke="none" 
	d="
M392.976562,284.051208 
	C393.041443,283.950500 392.948761,284.366852 392.886383,284.569183 
	C392.716217,284.528961 392.745422,284.322418 392.976562,284.051208 
z"/>
<path fill="#EA9977" opacity="1.000000" stroke="none" 
	d="
M332.539886,334.480530 
	C332.565125,334.527863 332.514648,334.433197 332.539886,334.480530 
z"/>
<path fill="#F0BBA0" opacity="1.000000" stroke="none" 
	d="
M308.979492,392.501801 
	C309.005768,392.196167 309.018646,391.889984 309.021423,391.353516 
	C321.276886,390.797333 333.528046,390.248718 345.781403,390.193024 
	C367.830597,390.092743 389.881134,390.287994 412.434448,390.660156 
	C413.268982,391.301331 413.600159,391.642120 413.910339,392.328461 
	C413.910339,392.903839 413.931335,393.133698 413.952301,393.363525 
	C413.590210,393.557343 413.228149,393.751160 412.355865,393.681793 
	C410.258057,393.307098 408.670471,393.195587 406.607239,393.034851 
	C397.413757,392.971313 388.695984,392.956970 379.624695,392.784546 
	C378.137329,392.443176 376.897919,391.866821 375.886047,392.138336 
	C367.162109,394.479401 358.624207,394.587067 349.517395,393.310211 
	C339.110107,391.850983 328.336395,392.981598 317.722473,393.062347 
	C316.811798,393.069275 315.905487,393.642395 314.616760,393.902588 
	C312.484100,393.402374 310.731781,392.952087 308.979492,392.501801 
z"/>
<path fill="#C18F78" opacity="1.000000" stroke="none" 
	d="
M413.931335,391.982910 
	C413.600159,391.642120 413.268982,391.301331 412.887085,390.722595 
	C414.046631,390.506622 415.256927,390.528534 416.728271,390.812988 
	C416.498779,391.363647 416.008270,391.651764 414.973633,391.967896 
	C414.429535,391.995972 413.931335,391.982910 413.931335,391.982910 
z"/>
<path fill="#F29779" opacity="1.000000" stroke="none" 
	d="
M405.100250,398.178619 
	C404.277100,400.068207 403.947388,402.499481 402.556824,403.766174 
	C381.555298,422.897217 351.944977,425.460876 329.173157,410.876160 
	C324.478668,407.869476 321.061310,402.868835 317.397125,398.417603 
	C318.232391,398.102264 318.749237,398.079712 319.215973,398.221771 
	C340.915710,404.825836 362.856201,407.171173 385.261688,402.175903 
	C391.844391,400.708282 398.485779,399.503723 405.100250,398.178619 
z"/>
<path fill="#D17358" opacity="1.000000" stroke="none" 
	d="
M405.437073,398.087341 
	C398.485779,399.503723 391.844391,400.708282 385.261688,402.175903 
	C362.856201,407.171173 340.915710,404.825836 319.215973,398.221771 
	C318.749237,398.079712 318.232391,398.102264 317.340393,398.076294 
	C314.292542,396.501434 311.643219,394.898254 308.986694,392.898438 
	C310.731781,392.952087 312.484100,393.402374 314.860870,394.189453 
	C316.751160,394.890991 318.003265,395.314728 319.284790,395.611847 
	C339.620850,400.326538 359.975433,404.813782 381.380005,399.904541 
	C389.214447,398.259888 396.664886,396.696289 404.079285,394.977234 
	C405.168274,394.724762 406.085968,393.733521 407.082886,393.084106 
	C408.670471,393.195587 410.258057,393.307098 412.146088,393.702972 
	C410.222321,395.323608 407.998077,396.659851 405.437073,398.087341 
z"/>
<path fill="#D17358" opacity="1.000000" stroke="none" 
	d="
M413.910339,392.328461 
	C413.931335,391.982910 414.429535,391.995972 414.677612,391.983215 
	C414.732483,392.291443 414.539307,392.612427 414.149231,393.148468 
	C413.931335,393.133698 413.910339,392.903839 413.910339,392.328461 
z"/>
<path fill="#8F5E49" opacity="1.000000" stroke="none" 
	d="
M339.420593,356.914795 
	C344.771210,355.429291 348.041290,358.026398 350.737793,361.719421 
	C350.464020,362.240601 350.190247,362.761780 349.916473,363.282990 
	C346.378021,361.272278 342.839539,359.261566 339.420593,356.914795 
z"/>
<path fill="#8F5E49" opacity="1.000000" stroke="none" 
	d="
M378.910889,356.614197 
	C381.004028,356.361938 382.732544,356.248932 384.461090,356.135925 
	C384.608398,356.682800 384.755737,357.229675 384.903076,357.776550 
	C381.224945,359.247284 377.546814,360.718018 373.868652,362.188751 
	C373.552795,361.673553 373.236908,361.158325 372.921051,360.643097 
	C374.796112,359.346558 376.671173,358.050018 378.910889,356.614197 
z"/>
<path fill="#F3F2F0" opacity="1.000000" stroke="none" 
	d="
M294.407227,278.384155 
	C293.568237,276.535522 293.119019,274.607147 292.859863,272.356049 
	C294.725830,272.933258 296.401764,273.833191 298.077667,274.733154 
	C296.984131,275.923615 295.890564,277.114044 294.407227,278.384155 
z"/>
<path fill="#282726" opacity="1.000000" stroke="none" 
	d="
M427.995148,278.332245 
	C427.845490,282.184235 426.074432,284.754761 422.030151,284.734558 
	C418.771759,284.718323 415.698761,280.732971 415.993652,277.468140 
	C416.425140,272.691101 419.888763,272.886688 423.685455,273.414246 
	C425.370728,275.311157 426.682953,276.821716 427.995148,278.332245 
z"/>
<path fill="#F3F2F0" opacity="1.000000" stroke="none" 
	d="
M428.313141,278.139954 
	C426.682953,276.821716 425.370728,275.311157 424.115265,273.439575 
	C424.699249,272.965332 425.226532,272.852142 425.897461,272.506927 
	C427.438843,272.416779 428.836578,272.558655 430.562073,272.861115 
	C430.136963,274.663696 429.384064,276.305664 428.313141,278.139954 
z"/>
<path fill="#F2987A" opacity="1.000000" stroke="none" 
	d="
M380.984344,399.935425 
	C359.975433,404.813782 339.620850,400.326538 319.284790,395.611847 
	C318.003265,395.314728 316.751160,394.890991 315.241241,394.239319 
	C315.905487,393.642395 316.811798,393.069275 317.722473,393.062347 
	C328.336395,392.981598 339.110107,391.850983 349.517395,393.310211 
	C358.624207,394.587067 367.162109,394.479401 375.886047,392.138336 
	C376.897919,391.866821 378.137329,392.443176 379.679626,393.177185 
	C380.386749,395.797089 380.685547,397.866241 380.984344,399.935425 
z"/>
<path fill="#EE9074" opacity="1.000000" stroke="none" 
	d="
M381.380005,399.904541 
	C380.685547,397.866241 380.386749,395.797089 380.033081,393.335266 
	C388.695984,392.956970 397.413757,392.971313 406.607239,393.034882 
	C406.085968,393.733521 405.168274,394.724762 404.079285,394.977234 
	C396.664886,396.696289 389.214447,398.259888 381.380005,399.904541 
z"/>
</svg>